<svg version="1.1" id="Layer_1" xmlns="http://www.w3.org/2000/svg" xmlns:xlink="http://www.w3.org/1999/xlink" x="0px" y="0px"
	 width="100%" viewBox="0 0 339 424" enable-background="new 0 0 339 424" xml:space="preserve">
<path fill="#FAB924" opacity="1.000000" stroke="none" 
	d="
M340.000000,200.000000 
	C340.000000,275.333313 340.000000,350.166656 340.000000,425.000000 
	C227.000031,425.000000 114.000069,425.000000 1.000076,425.000000 
	C1.000050,283.666718 1.000050,142.333450 1.000025,1.000133 
	C113.999916,1.000088 226.999832,1.000088 339.999878,1.000044 
	C340.000000,67.166664 340.000000,133.333328 340.000000,200.000000 
M134.036362,367.990875 
	C134.036362,367.990875 134.022049,367.911774 133.718338,367.499878 
	C133.405533,367.376587 133.092728,367.253296 132.896805,367.145233 
	C132.896805,367.145233 132.845139,367.251160 132.778900,366.429291 
	C128.762527,364.011200 124.131142,364.396118 122.117462,368.208862 
	C122.117462,372.681274 122.117462,377.153687 122.117462,382.050537 
	C125.661407,382.050537 129.062592,382.558990 132.180389,381.839447 
	C133.777191,381.470947 136.176880,377.721863 135.987747,377.512604 
	C133.512909,374.774567 135.455170,371.728973 134.805054,368.539368 
	C134.625046,368.288574 134.394714,368.098846 134.036362,367.990875 
M143.255417,350.375000 
	C143.255417,350.375000 143.527557,350.590363 143.527557,350.590363 
	C143.527557,350.590363 143.870743,350.538239 144.745255,350.797363 
	C147.164032,350.745026 149.582809,350.692688 152.665970,350.808289 
	C153.540161,350.255829 154.414337,349.703369 155.719421,348.953217 
	C155.719421,348.953217 156.193130,348.933960 156.193130,348.933960 
	C156.193130,348.933960 156.629623,349.118988 156.998566,349.856018 
	C165.943527,353.265503 168.711487,351.458130 168.879883,342.454620 
	C168.958145,338.270172 169.590881,334.096130 170.209106,330.838959 
	C170.230850,335.620117 170.070770,340.413452 170.389008,345.174805 
	C170.480331,346.541138 171.953568,347.815063 173.131348,349.847260 
	C177.258606,351.182495 181.380325,352.426636 185.671066,348.930756 
	C185.671066,348.930756 186.152542,348.922302 186.152542,348.922302 
	C186.152542,348.922302 186.596786,349.108124 186.944656,349.866455 
	C190.477631,350.164215 194.045944,350.840607 197.520920,350.516418 
	C198.494431,350.425568 199.039185,347.282288 200.092438,345.754150 
	C200.522095,345.130737 201.780777,345.078705 202.875763,345.522491 
	C203.870209,346.719452 204.864639,347.916412 206.173508,349.839233 
	C210.331909,351.200958 214.478638,352.367981 218.824661,348.945190 
	C219.164337,348.891785 219.481354,348.953949 219.943497,349.613647 
	C220.312439,349.867371 220.681366,350.121094 221.919037,350.695740 
	C224.362381,350.511383 226.805725,350.327026 229.197220,350.247070 
	C229.197220,350.247070 229.172211,350.207214 229.640503,349.380646 
	C229.882553,345.448975 230.124603,341.517303 230.847992,338.281952 
	C231.482239,340.293671 231.857788,342.441559 232.824692,344.278137 
	C233.761002,346.056610 235.305557,347.514923 236.967484,349.835938 
	C243.328873,352.166504 246.067871,351.324341 246.093475,346.829834 
	C246.176743,332.210571 246.194138,317.589600 246.000259,302.972443 
	C245.983353,301.697571 244.232391,300.445740 242.912735,298.474823 
	C239.762039,298.171326 236.611343,297.867798 232.816940,297.502258 
	C232.816940,302.212952 232.816940,305.995697 232.248795,309.164368 
	C231.548111,307.208893 231.042603,305.150940 230.086288,303.329681 
	C229.291672,301.816345 227.966873,300.581421 226.307495,298.753052 
	C223.352859,298.313629 220.398224,297.874176 216.734879,297.329315 
	C216.734879,311.480652 216.734879,324.612701 216.284454,336.996643 
	C213.809708,325.903320 211.434677,314.785767 208.753998,303.742432 
	C208.346283,302.062805 206.521194,300.727295 204.932297,298.548279 
	C196.274902,295.964081 194.611801,296.925110 192.818665,305.108398 
	C190.594437,315.259125 188.227264,325.378540 185.483414,334.969269 
	C185.291794,334.320740 185.100174,333.672180 185.017456,332.088867 
	C184.952591,321.731812 184.887711,311.374725 184.834839,300.412781 
	C183.986801,300.017242 183.138763,299.621704 181.950516,298.488129 
	C178.273468,298.136261 174.596436,297.784393 170.671234,297.408783 
	C170.316711,304.617035 170.002258,311.010406 169.153946,316.676086 
	C169.044250,312.250214 169.161713,307.800354 168.698776,303.411743 
	C168.541733,301.923035 166.919373,300.588928 165.460419,298.626709 
	C161.366608,297.941681 157.056488,295.450134 153.746033,300.619598 
	C153.746033,312.170563 153.746033,323.721558 153.746033,335.272522 
	C153.226639,335.298798 152.707230,335.325104 152.187836,335.351379 
	C150.044724,325.189026 148.029770,314.996490 145.651718,304.889404 
	C145.168915,302.837433 143.316864,301.107635 141.632904,298.624847 
	C138.287048,298.196228 134.941177,297.767609 131.224960,297.291565 
	C127.922699,312.210846 124.753349,326.529663 120.965233,340.319702 
	C117.813545,332.124115 114.894928,324.007080 118.724335,315.070923 
	C120.330887,311.321930 120.829193,307.110840 122.030273,303.170471 
	C122.757133,300.785858 122.309067,299.337006 119.236237,298.213257 
	C115.247040,297.989319 111.257835,297.765350 107.333176,297.545013 
	C106.686584,299.588409 106.247398,300.976379 105.431976,301.803833 
	C104.381851,300.953796 103.331718,300.103760 101.961884,298.510468 
	C98.079475,298.364716 94.197067,298.218964 89.612076,298.544922 
	C89.416748,299.167297 89.052483,299.789246 89.050835,300.412140 
	C89.011673,315.242645 88.988968,330.073334 89.051880,344.903625 
	C89.056335,345.955780 89.742599,347.005066 90.636826,348.370789 
	C91.402702,348.620819 92.168579,348.870880 93.256813,349.828613 
	C96.771317,350.090668 100.337563,350.754608 103.761589,350.313782 
	C104.553345,350.211884 104.847748,346.329926 105.400566,344.195038 
	C105.479767,343.889160 105.726463,343.626678 106.364655,343.993042 
	C107.528389,345.705292 108.692116,347.417511 110.193100,349.852997 
	C111.735703,350.209564 113.271652,350.835205 114.822105,350.873535 
	C119.957901,351.000458 125.100121,350.847443 130.237503,350.937347 
	C133.387619,350.992462 136.346710,351.186737 136.262268,346.613251 
	C136.251724,346.041992 138.074280,345.436859 139.342407,345.479889 
	C140.401947,346.687256 141.461472,347.894653 142.769196,349.615662 
	C142.894852,349.758392 143.020493,349.901154 143.255417,350.375000 
M164.044403,368.105377 
	C164.044403,372.686646 164.044403,377.267914 164.044403,382.130737 
	C165.631989,382.025146 166.711578,381.953339 167.827652,381.879089 
	C167.963791,379.858734 168.082306,378.099976 168.201279,376.334137 
	C171.266647,376.027863 174.017258,375.753052 176.767868,375.478241 
	C176.777695,374.912231 176.787537,374.346222 176.797363,373.780243 
	C174.673859,373.589691 172.523651,373.539215 170.439621,373.141754 
	C169.569321,372.975800 168.839706,372.072205 168.046112,371.503998 
	C168.859604,370.952362 169.618729,370.064301 170.498413,369.922089 
	C172.114212,369.660858 173.887833,370.150543 175.427032,369.721832 
	C176.415207,369.446564 177.101776,368.088501 177.805328,366.398376 
	C173.614746,366.001923 169.427109,365.557434 165.228027,365.299255 
	C164.888550,365.278412 164.470505,366.535797 164.044403,368.105377 
M250.283569,349.827881 
	C252.842331,350.171234 255.398407,350.536316 257.960541,350.852142 
	C260.906219,351.215271 262.130920,350.041260 262.106140,346.925171 
	C261.989624,332.262177 262.113800,317.596893 261.920471,302.935486 
	C261.903870,301.675140 260.191010,300.437134 258.921631,298.461945 
	C255.123856,298.155914 251.326080,297.849854 247.156082,297.513824 
	C247.156082,314.333008 247.100235,330.089478 247.275330,345.843414 
	C247.287674,346.953369 249.004028,348.044342 250.283569,349.827881 
M77.627068,181.899857 
	C90.423820,208.923248 110.849709,227.659836 138.706818,238.471573 
	C141.152054,239.420624 143.578110,241.311066 145.176559,243.403336 
	C154.680725,255.843445 163.933136,268.475800 173.288025,281.030243 
	C174.139465,282.172852 175.117325,283.221252 176.278702,284.601166 
	C186.496643,270.783417 196.284653,257.319427 206.384186,244.093323 
	C208.266174,241.628723 211.116150,239.371567 213.997223,238.281204 
	C258.398376,221.477219 286.564453,178.711502 284.157928,131.386337 
	C280.654083,62.481899 214.076538,14.455386 147.589386,32.686344 
	C84.876274,49.882446 49.716049,118.754524 77.627068,181.899857 
M216.974091,369.799408 
	C217.669708,369.254578 218.365311,368.709778 220.129654,367.327911 
	C214.518127,367.327911 210.453445,367.327911 206.175171,367.327911 
	C206.175171,372.348511 206.175171,377.083527 206.175171,382.159149 
	C210.716904,382.020569 215.066910,382.627869 219.273407,381.818054 
	C219.262451,381.180878 219.251495,380.543701 219.240540,379.906525 
	C216.235947,379.711761 213.231354,379.516968 210.080704,379.312714 
	C209.623047,372.414124 217.383499,378.491608 218.177979,373.467499 
	C216.935181,373.291382 215.841232,373.258484 214.822845,372.964172 
	C213.184494,372.490692 211.596054,371.844574 209.986542,371.271393 
	C211.691956,370.786499 213.393906,370.288635 215.105972,369.828461 
	C215.416183,369.745087 215.767975,369.816315 216.974091,369.799408 
M155.751175,378.664825 
	C156.768982,367.929260 156.590393,367.224884 152.080811,366.272034 
	C152.080811,369.843781 152.271988,373.319794 151.969345,376.752258 
	C151.873138,377.843353 150.462585,378.818542 149.653473,379.846771 
	C148.750000,378.890045 147.501801,378.073578 147.039444,376.937347 
	C146.571716,375.787994 147.078232,374.280212 146.806305,373.004425 
	C146.379288,371.000977 145.657150,369.060394 145.059998,367.093201 
	C144.387985,369.134247 143.671234,371.162231 143.071472,373.224304 
	C142.893387,373.836548 143.121262,374.555145 143.031448,375.206818 
	C142.580185,378.481415 143.374313,381.209961 146.833359,382.157898 
	C150.147766,383.066162 153.492752,383.272400 155.751175,378.664825 
M196.100479,369.834595 
	C197.082550,369.470123 198.064621,369.105652 199.046692,368.741180 
	C198.944794,368.320312 198.842911,367.899445 198.741028,367.478577 
	C194.074280,367.478577 189.407516,367.478577 184.351807,367.478577 
	C184.351807,372.124786 184.351807,376.960144 184.351807,382.136292 
	C185.992508,382.060913 187.397217,381.996338 188.756699,381.933868 
	C188.934494,379.764099 189.077911,378.013947 189.223495,376.237183 
	C192.247604,376.026581 194.907700,375.841309 197.567795,375.656036 
	C197.622742,375.156006 197.677704,374.655945 197.732651,374.155914 
	C196.693130,373.845764 195.658691,373.517120 194.612946,373.229553 
	C192.755844,372.718903 190.891891,372.233124 189.030807,371.736938 
	C190.926147,371.104370 192.820374,370.468506 194.718918,369.845703 
	C194.868805,369.796570 195.048615,369.838593 196.100479,369.834595 
M235.007919,381.093475 
	C235.007919,377.465973 235.007919,373.838470 235.007919,370.477264 
	C237.423141,369.803345 239.282272,369.284576 241.141403,368.765839 
	C241.021683,368.413177 240.901978,368.060547 240.782257,367.707886 
	C235.802567,367.707886 230.822861,367.707886 225.843170,367.707886 
	C225.774796,368.174561 225.706436,368.641235 225.638062,369.107941 
	C227.531067,369.513336 229.424072,369.918762 231.633179,370.391876 
	C231.633179,373.534454 231.400558,376.529663 231.769577,379.448822 
	C231.886017,380.370056 233.613174,381.087677 235.007919,381.093475 
z"/>
<path fill="#170F06" opacity="1.000000" stroke="none" 
	d="
M77.438713,181.572083 
	C49.716049,118.754524 84.876274,49.882446 147.589386,32.686344 
	C214.076538,14.455386 280.654083,62.481899 284.157928,131.386337 
	C286.564453,178.711502 258.398376,221.477219 213.997223,238.281204 
	C211.116150,239.371567 208.266174,241.628723 206.384186,244.093323 
	C196.284653,257.319427 186.496643,270.783417 176.278702,284.601166 
	C175.117325,283.221252 174.139465,282.172852 173.288025,281.030243 
	C163.933136,268.475800 154.680725,255.843445 145.176559,243.403336 
	C143.578110,241.311066 141.152054,239.420624 138.706818,238.471573 
	C110.849709,227.659836 90.423820,208.923248 77.438713,181.572083 
M211.102997,235.611893 
	C211.724167,235.374252 212.345078,235.135925 212.966553,234.899124 
	C259.928864,217.007050 288.203064,168.392700 279.701843,120.155136 
	C269.994598,65.074493 222.194366,28.338646 166.122726,32.866329 
	C114.611908,37.025734 72.798920,81.214355 71.271286,133.106796 
	C69.917564,179.091385 97.472710,219.651031 140.656876,235.517776 
	C143.116989,236.421661 145.591431,238.267273 147.199570,240.341156 
	C154.542847,249.811203 161.570496,259.525726 168.730484,269.138336 
	C171.079880,272.292511 173.486298,275.404236 176.171066,278.935822 
	C185.954330,265.717987 195.282913,252.986359 204.799515,240.396835 
	C206.205215,238.537231 208.500626,237.350174 211.102997,235.611893 
z"/>
<path fill="#080705" opacity="1.000000" stroke="none" 
	d="
M172.793182,349.131348 
	C171.953568,347.815063 170.480331,346.541138 170.389008,345.174805 
	C170.070770,340.413452 170.230850,335.620117 170.195953,329.926575 
	C168.856110,328.484833 167.529434,327.955536 165.678284,327.216949 
	C165.678284,331.702271 165.678284,334.979675 165.678284,338.257080 
	C165.678284,341.651855 165.678284,345.046631 165.678284,348.567596 
	C162.154007,348.782349 159.391815,348.950653 156.629623,349.118988 
	C156.629623,349.118988 156.193130,348.933960 156.193130,348.933960 
	C156.193130,348.933960 155.719421,348.953217 155.262207,348.939026 
	C154.628632,348.911316 154.452301,348.897827 154.172714,348.432678 
	C153.911377,332.003174 153.753281,316.025299 153.595184,300.047455 
	C157.056488,295.450134 161.366608,297.941681 165.613068,299.347473 
	C165.765701,305.958862 165.765701,311.849548 165.765701,318.129791 
	C167.500656,317.808655 168.594238,317.606232 169.687805,317.403809 
	C170.002258,311.010406 170.316711,304.617035 170.671234,297.408783 
	C174.596436,297.784393 178.273468,298.136261 182.052094,299.155731 
	C182.197052,300.223999 182.240463,300.624634 182.210480,301.487152 
	C182.184692,316.623108 182.232285,331.297180 182.179779,346.300690 
	C182.081604,347.089417 182.083542,347.548737 181.785522,348.297974 
	C178.588120,348.769043 175.690659,348.950195 172.793182,349.131348 
z"/>
<path fill="#060504" opacity="1.000000" stroke="none" 
	d="
M219.775711,349.131653 
	C219.481354,348.953949 219.164337,348.891785 218.260895,348.729462 
	C217.376389,344.924072 217.055634,341.334412 216.734879,337.744751 
	C216.734879,324.612701 216.734879,311.480652 216.734879,297.329315 
	C220.398224,297.874176 223.352859,298.313629 226.582352,299.381287 
	C228.676544,307.242096 230.495865,314.474731 232.315201,321.707336 
	C232.482452,321.663177 232.649689,321.619019 232.816940,321.574829 
	C232.816940,317.642700 232.816940,313.710541 232.816940,309.778412 
	C232.816940,305.995697 232.816940,302.212952 232.816940,297.502258 
	C236.611343,297.867798 239.762039,298.171326 243.022766,299.277466 
	C243.132797,316.178467 243.132797,332.276825 243.132797,348.525146 
	C240.495911,348.762146 238.539429,348.937988 236.582962,349.113831 
	C235.305557,347.514923 233.761002,346.056610 232.824692,344.278137 
	C231.857788,342.441559 231.482239,340.293671 230.557434,337.617371 
	C229.424255,333.865570 228.581650,330.778290 227.739044,327.691040 
	C227.352417,327.729370 226.965790,327.767700 226.579163,327.806030 
	C226.579163,334.732391 226.579163,341.658783 226.579163,348.584564 
	C224.263794,348.787964 222.633621,348.931183 220.692566,349.003967 
	C220.179703,348.999542 219.977707,349.065582 219.775711,349.131653 
z"/>
<path fill="#070605" opacity="1.000000" stroke="none" 
	d="
M205.859070,349.113403 
	C204.864639,347.916412 203.870209,346.719452 202.781219,344.754517 
	C198.103348,341.332550 197.377258,341.775635 195.284653,348.634247 
	C192.428085,348.790070 189.512436,348.949097 186.596786,349.108124 
	C186.596786,349.108124 186.152542,348.922302 186.152542,348.922302 
	C186.152542,348.922302 185.671066,348.930756 185.178406,348.888916 
	C184.408218,348.567657 184.130722,348.288300 183.903229,347.672424 
	C183.927521,346.886719 183.901810,346.437531 184.000931,345.619904 
	C184.452911,343.197601 184.780045,341.143738 185.312302,338.838043 
	C185.652237,337.561310 185.787033,336.536407 185.921844,335.511475 
	C188.227264,325.378540 190.594437,315.259125 192.818665,305.108398 
	C194.611801,296.925110 196.274902,295.964081 205.130066,299.261536 
	C208.718521,316.067902 212.109177,332.160980 215.564438,348.560638 
	C211.749176,348.777924 208.804123,348.945679 205.859070,349.113403 
M197.901398,330.160614 
	C198.398590,331.293304 198.895798,332.425995 199.392975,333.558685 
	C199.997955,332.489014 201.153397,331.396606 201.110291,330.353729 
	C200.945343,326.362701 200.395096,322.387604 199.988693,318.406555 
	C199.703644,318.425476 199.418610,318.444397 199.133575,318.463287 
	C198.740799,322.075104 198.348007,325.686890 197.901398,330.160614 
z"/>
<path fill="#060505" opacity="1.000000" stroke="none" 
	d="
M121.584000,340.848480 
	C124.753349,326.529663 127.922699,312.210846 131.224960,297.291565 
	C134.941177,297.767609 138.287048,298.196228 141.831238,299.317871 
	C143.216614,305.694763 144.450211,311.369415 145.580643,317.064545 
	C147.676437,327.623260 149.711960,338.193970 151.326828,348.778931 
	C148.094376,348.899506 145.307693,349.000763 142.520996,349.102020 
	C141.461472,347.894653 140.401947,346.687256 139.266510,344.731934 
	C137.286636,343.457306 135.382675,342.930664 134.421692,342.664856 
	C132.911865,345.401825 132.155548,348.390503 131.004761,348.551056 
	C127.750351,349.005005 124.334290,348.299988 120.969986,347.733521 
	C120.941780,347.203888 120.925514,346.992340 120.878891,346.426727 
	C121.093704,344.331268 121.338860,342.589874 121.584000,340.848480 
M137.265823,324.332733 
	C137.106644,322.584564 136.947479,320.836426 136.788300,319.088257 
	C136.445129,319.067108 136.101959,319.045959 135.758789,319.024780 
	C135.233414,323.662903 134.708038,328.300995 134.182678,332.939087 
	C134.613113,333.285126 135.043564,333.631165 135.473999,333.977203 
	C136.307312,333.023010 137.717194,332.141724 137.848969,331.098907 
	C138.092545,329.171417 137.587296,327.149261 137.265823,324.332733 
z"/>
<path fill="#070503" opacity="1.000000" stroke="none" 
	d="
M249.928009,349.144165 
	C249.004028,348.044342 247.287674,346.953369 247.275330,345.843414 
	C247.100235,330.089478 247.156082,314.333008 247.156082,297.513824 
	C251.326080,297.849854 255.123856,298.155914 259.009460,299.272095 
	C259.097290,316.229218 259.097290,332.376190 259.097290,348.595154 
	C255.498825,348.810608 252.713409,348.977386 249.928009,349.144165 
z"/>
<path fill="#070603" opacity="1.000000" stroke="none" 
	d="
M92.934456,349.120911 
	C92.168579,348.870880 91.402702,348.620819 90.404129,347.739594 
	C90.219177,330.763336 90.266914,314.418274 90.314659,298.073212 
	C94.197067,298.218964 98.079475,298.364716 102.038155,299.321777 
	C102.143387,311.083466 102.172348,322.033875 102.129364,333.447083 
	C102.057419,338.784302 102.057419,343.658722 102.057419,348.595428 
	C98.480240,348.801483 95.707352,348.961212 92.934456,349.120911 
z"/>
<path fill="#070707" opacity="1.000000" stroke="none" 
	d="
M120.909241,346.780792 
	C120.925514,346.992340 120.941780,347.203888 120.582031,347.861481 
	C116.755951,348.581573 113.305893,348.855682 109.855843,349.129761 
	C108.692116,347.417511 107.528389,345.705292 106.147903,343.321777 
	C105.256378,338.774078 104.581596,334.897644 103.944016,330.595093 
	C103.695015,325.924530 102.932274,321.644501 103.245239,317.444672 
	C103.622459,312.382355 104.913010,307.388092 105.808197,302.364349 
	C106.247398,300.976379 106.686584,299.588409 107.333176,297.545013 
	C111.257835,297.765350 115.247040,297.989319 119.200119,298.871918 
	C118.538300,302.099792 118.215164,304.791321 117.234505,307.217041 
	C113.004982,317.678955 112.985992,328.037537 117.437592,338.411499 
	C118.628502,341.186798 119.753807,343.990265 120.909241,346.780792 
z"/>
<path fill="#1E1409" opacity="1.000000" stroke="none" 
	d="
M135.021652,368.936188 
	C135.455170,371.728973 133.512909,374.774567 135.987747,377.512604 
	C136.176880,377.721863 133.777191,381.470947 132.180389,381.839447 
	C129.062592,382.558990 125.661407,382.050537 122.117462,382.050537 
	C122.117462,377.153687 122.117462,372.681274 122.552956,367.679382 
	C126.274010,367.183624 129.559570,367.217377 132.845139,367.251160 
	C132.845139,367.251160 132.896805,367.145233 132.956436,367.377533 
	C133.351395,367.710480 133.686722,367.811127 134.022049,367.911774 
	C134.022049,367.911774 134.036362,367.990875 134.166397,368.191071 
	C134.479340,368.651184 134.721069,368.832825 135.021652,368.936188 
z"/>
<path fill="#E8E4D4" opacity="1.000000" stroke="none" 
	d="
M151.772583,348.759674 
	C149.711960,338.193970 147.676437,327.623260 145.580643,317.064545 
	C144.450211,311.369415 143.216614,305.694763 142.062805,299.620117 
	C143.316864,301.107635 145.168915,302.837433 145.651718,304.889404 
	C148.029770,314.996490 150.044724,325.189026 152.187836,335.351379 
	C152.707230,335.325104 153.226639,335.298798 153.746033,335.272522 
	C153.746033,323.721558 153.746033,312.170563 153.670609,300.333527 
	C153.753281,316.025299 153.911377,332.003174 153.805389,348.467957 
	C153.053055,349.009918 152.564789,349.064880 151.998749,349.031311 
	C151.920990,348.942780 151.772583,348.759674 151.772583,348.759674 
z"/>
<path fill="#F2EFDD" opacity="1.000000" stroke="none" 
	d="
M250.105789,349.486023 
	C252.713409,348.977386 255.498825,348.810608 259.097290,348.595154 
	C259.097290,332.376190 259.097290,316.229218 259.181702,299.635498 
	C260.191010,300.437134 261.903870,301.675140 261.920471,302.935486 
	C262.113800,317.596893 261.989624,332.262177 262.106140,346.925171 
	C262.130920,350.041260 260.906219,351.215271 257.960541,350.852142 
	C255.398407,350.536316 252.842331,350.171234 250.105789,349.486023 
z"/>
<path fill="#EAE7D4" opacity="1.000000" stroke="none" 
	d="
M206.016296,349.476318 
	C208.804123,348.945679 211.749176,348.777924 215.564438,348.560638 
	C212.109177,332.160980 208.718521,316.067902 205.339767,299.603699 
	C206.521194,300.727295 208.346283,302.062805 208.753998,303.742432 
	C211.434677,314.785767 213.809708,325.903320 216.509674,337.370697 
	C217.055634,341.334412 217.376389,344.924072 218.028610,348.811279 
	C214.478638,352.367981 210.331909,351.200958 206.016296,349.476318 
z"/>
<path fill="#EDEBDD" opacity="1.000000" stroke="none" 
	d="
M236.775223,349.474884 
	C238.539429,348.937988 240.495911,348.762146 243.132797,348.525146 
	C243.132797,332.276825 243.132797,316.178467 243.209839,299.631653 
	C244.232391,300.445740 245.983353,301.697571 246.000259,302.972443 
	C246.194138,317.589600 246.176743,332.210571 246.093475,346.829834 
	C246.067871,351.324341 243.328873,352.166504 236.775223,349.474884 
z"/>
<path fill="#EBE8DA" opacity="1.000000" stroke="none" 
	d="
M120.878891,346.426727 
	C119.753807,343.990265 118.628502,341.186798 117.437592,338.411499 
	C112.985992,328.037537 113.004982,317.678955 117.234505,307.217041 
	C118.215164,304.791321 118.538300,302.099792 119.447853,299.198730 
	C122.309067,299.337006 122.757133,300.785858 122.030273,303.170471 
	C120.829193,307.110840 120.330887,311.321930 118.724335,315.070923 
	C114.894928,324.007080 117.813545,332.124115 121.274620,340.584106 
	C121.338860,342.589874 121.093704,344.331268 120.878891,346.426727 
z"/>
<path fill="#1D1208" opacity="1.000000" stroke="none" 
	d="
M216.537323,369.807770 
	C215.767975,369.816315 215.416183,369.745087 215.105972,369.828461 
	C213.393906,370.288635 211.691956,370.786499 209.986542,371.271393 
	C211.596054,371.844574 213.184494,372.490692 214.822845,372.964172 
	C215.841232,373.258484 216.935181,373.291382 218.177979,373.467499 
	C217.383499,378.491608 209.623047,372.414124 210.080704,379.312714 
	C213.231354,379.516968 216.235947,379.711761 219.240540,379.906525 
	C219.251495,380.543701 219.262451,381.180878 219.273407,381.818054 
	C215.066910,382.627869 210.716904,382.020569 206.175171,382.159149 
	C206.175171,377.083527 206.175171,372.348511 206.175171,367.327911 
	C210.453445,367.327911 214.518127,367.327911 220.129654,367.327911 
	C218.365311,368.709778 217.669708,369.254578 216.537323,369.807770 
z"/>
<path fill="#201608" opacity="1.000000" stroke="none" 
	d="
M155.580200,379.044434 
	C153.492752,383.272400 150.147766,383.066162 146.833359,382.157898 
	C143.374313,381.209961 142.580185,378.481415 143.031448,375.206818 
	C143.121262,374.555145 142.893387,373.836548 143.071472,373.224304 
	C143.671234,371.162231 144.387985,369.134247 145.059998,367.093201 
	C145.657150,369.060394 146.379288,371.000977 146.806305,373.004425 
	C147.078232,374.280212 146.571716,375.787994 147.039444,376.937347 
	C147.501801,378.073578 148.750000,378.890045 149.653473,379.846771 
	C150.462585,378.818542 151.873138,377.843353 151.969345,376.752258 
	C152.271988,373.319794 152.080811,369.843781 152.080811,366.272034 
	C156.590393,367.224884 156.768982,367.929260 155.580200,379.044434 
z"/>
<path fill="#231709" opacity="1.000000" stroke="none" 
	d="
M195.657501,369.836426 
	C195.048615,369.838593 194.868805,369.796570 194.718918,369.845703 
	C192.820374,370.468506 190.926147,371.104370 189.030807,371.736938 
	C190.891891,372.233124 192.755844,372.718903 194.612946,373.229553 
	C195.658691,373.517120 196.693130,373.845764 197.732651,374.155914 
	C197.677704,374.655945 197.622742,375.156006 197.567795,375.656036 
	C194.907700,375.841309 192.247604,376.026581 189.223495,376.237183 
	C189.077911,378.013947 188.934494,379.764099 188.756699,381.933868 
	C187.397217,381.996338 185.992508,382.060913 184.351807,382.136292 
	C184.351807,376.960144 184.351807,372.124786 184.351807,367.478577 
	C189.407516,367.478577 194.074280,367.478577 198.741028,367.478577 
	C198.842911,367.899445 198.944794,368.320312 199.046692,368.741180 
	C198.064621,369.105652 197.082550,369.470123 195.657501,369.836426 
z"/>
<path fill="#F5F5F5" opacity="1.000000" stroke="none" 
	d="
M185.107178,339.089844 
	C184.780045,341.143738 184.452911,343.197601 183.734863,345.623291 
	C182.989258,345.987152 182.634567,345.979218 182.279877,345.971283 
	C182.232285,331.297180 182.184692,316.623108 182.528290,301.492065 
	C183.553925,301.029297 184.188370,301.023499 184.822830,301.017700 
	C184.887711,311.374725 184.952591,321.731812 184.723083,332.829590 
	C184.654861,335.410187 184.881012,337.250000 185.107178,339.089844 
z"/>
<path fill="#231709" opacity="1.000000" stroke="none" 
	d="
M177.923538,367.215820 
	C177.101776,368.088501 176.415207,369.446564 175.427032,369.721832 
	C173.887833,370.150543 172.114212,369.660858 170.498413,369.922089 
	C169.618729,370.064301 168.859604,370.952362 168.046112,371.503998 
	C168.839706,372.072205 169.569321,372.975800 170.439621,373.141754 
	C172.523651,373.539215 174.673859,373.589691 176.797363,373.780243 
	C176.787537,374.346222 176.777695,374.912231 176.767868,375.478241 
	C174.017258,375.753052 171.266647,376.027863 168.201279,376.334137 
	C168.082306,378.099976 167.963791,379.858734 167.827652,381.879089 
	C166.711578,381.953339 165.631989,382.025146 164.044403,382.130737 
	C164.044403,377.267914 164.044403,372.686646 164.521210,367.594879 
	C169.306519,367.128174 173.615021,367.171997 177.923538,367.215820 
z"/>
<path fill="#170F06" opacity="1.000000" stroke="none" 
	d="
M234.805542,381.495972 
	C233.613174,381.087677 231.886017,380.370056 231.769577,379.448822 
	C231.400558,376.529663 231.633179,373.534454 231.633179,370.391876 
	C229.424072,369.918762 227.531067,369.513336 225.638062,369.107941 
	C225.706436,368.641235 225.774796,368.174561 225.843170,367.707886 
	C230.822861,367.707886 235.802567,367.707886 240.782257,367.707886 
	C240.901978,368.060547 241.021683,368.413177 241.141403,368.765839 
	C239.282272,369.284576 237.423141,369.803345 235.007919,370.477264 
	C235.007919,373.838470 235.007919,377.465973 234.805542,381.495972 
z"/>
<path fill="#F5EECF" opacity="1.000000" stroke="none" 
	d="
M156.814087,349.487488 
	C159.391815,348.950653 162.154007,348.782349 165.678284,348.567596 
	C165.678284,345.046631 165.678284,341.651855 165.678284,338.257080 
	C165.678284,334.979675 165.678284,331.702271 165.678284,327.216949 
	C167.529434,327.955536 168.856110,328.484833 170.077515,329.465759 
	C169.590881,334.096130 168.958145,338.270172 168.879883,342.454620 
	C168.711487,351.458130 165.943527,353.265503 156.814087,349.487488 
z"/>
<path fill="#EBE8DA" opacity="1.000000" stroke="none" 
	d="
M103.906822,331.021179 
	C104.581596,334.897644 105.256378,338.774078 105.913391,342.997314 
	C105.726463,343.626678 105.479767,343.889160 105.400566,344.195038 
	C104.847748,346.329926 104.553345,350.211884 103.761589,350.313782 
	C100.337563,350.754608 96.771317,350.090668 93.095634,349.474762 
	C95.707352,348.961212 98.480240,348.801483 102.057419,348.595428 
	C102.057419,343.658722 102.057419,338.784302 102.328705,333.272888 
	C103.035606,332.097626 103.471214,331.559387 103.906822,331.021179 
z"/>
<path fill="#F0E9CD" opacity="1.000000" stroke="none" 
	d="
M110.024475,349.491394 
	C113.305893,348.855682 116.755951,348.581573 120.593956,348.179504 
	C124.334290,348.299988 127.750351,349.005005 131.004761,348.551056 
	C132.155548,348.390503 132.911865,345.401825 134.421692,342.664856 
	C135.382675,342.930664 137.286636,343.457306 139.119034,344.415710 
	C138.074280,345.436859 136.251724,346.041992 136.262268,346.613251 
	C136.346710,351.186737 133.387619,350.992462 130.237503,350.937347 
	C125.100121,350.847443 119.957901,351.000458 114.822105,350.873535 
	C113.271652,350.835205 111.735703,350.209564 110.024475,349.491394 
z"/>
<path fill="#F2EFDD" opacity="1.000000" stroke="none" 
	d="
M221.003448,349.074402 
	C222.633621,348.931183 224.263794,348.787964 226.579163,348.584564 
	C226.579163,341.658783 226.579163,334.732391 226.579163,327.806030 
	C226.965790,327.767700 227.352417,327.729370 227.739044,327.691040 
	C228.581650,330.778290 229.424255,333.865570 230.316772,337.269226 
	C230.124603,341.517303 229.882553,345.448975 229.427841,349.788544 
	C229.215179,350.196442 229.249069,350.142670 229.249069,350.142700 
	C226.805725,350.327026 224.362381,350.511383 221.473267,350.320679 
	C221.013107,349.655365 221.005096,349.364990 221.003448,349.074402 
z"/>
<path fill="#DEDDD7" opacity="1.000000" stroke="none" 
	d="
M103.944016,330.595093 
	C103.471214,331.559387 103.035606,332.097626 102.400650,332.810059 
	C102.172348,322.033875 102.143387,311.083466 102.198013,299.693390 
	C103.331718,300.103760 104.381851,300.953796 105.620087,302.084106 
	C104.913010,307.388092 103.622459,312.382355 103.245239,317.444672 
	C102.932274,321.644501 103.695015,325.924530 103.944016,330.595093 
z"/>
<path fill="#E8E4D4" opacity="1.000000" stroke="none" 
	d="
M232.532867,309.471375 
	C232.816940,313.710541 232.816940,317.642700 232.816940,321.574829 
	C232.649689,321.619019 232.482452,321.663177 232.315201,321.707336 
	C230.495865,314.474731 228.676544,307.242096 226.867065,299.616333 
	C227.966873,300.581421 229.291672,301.816345 230.086288,303.329681 
	C231.042603,305.150940 231.548111,307.208893 232.532867,309.471375 
z"/>
<path fill="#F5EECF" opacity="1.000000" stroke="none" 
	d="
M169.420883,317.039948 
	C168.594238,317.606232 167.500656,317.808655 165.765701,318.129791 
	C165.765701,311.849548 165.765701,305.958862 165.866165,299.626190 
	C166.919373,300.588928 168.541733,301.923035 168.698776,303.411743 
	C169.161713,307.800354 169.044250,312.250214 169.420883,317.039948 
z"/>
<path fill="#F0E9CD" opacity="1.000000" stroke="none" 
	d="
M186.770721,349.487305 
	C189.512436,348.949097 192.428085,348.790070 195.284653,348.634247 
	C197.377258,341.775635 198.103348,341.332550 202.674500,344.376617 
	C201.780777,345.078705 200.522095,345.130737 200.092438,345.754150 
	C199.039185,347.282288 198.494431,350.425568 197.520920,350.516418 
	C194.045944,350.840607 190.477631,350.164215 186.770721,349.487305 
z"/>
<path fill="#F6BC36" opacity="1.000000" stroke="none" 
	d="
M89.963364,298.309082 
	C90.266914,314.418274 90.219177,330.763336 90.141632,347.582031 
	C89.742599,347.005066 89.056335,345.955780 89.051880,344.903625 
	C88.988968,330.073334 89.011673,315.242645 89.050835,300.412140 
	C89.052483,299.789246 89.416748,299.167297 89.963364,298.309082 
z"/>
<path fill="#F6BC36" opacity="1.000000" stroke="none" 
	d="
M177.864441,366.807098 
	C173.615021,367.171997 169.306519,367.128174 164.543488,367.141785 
	C164.470505,366.535797 164.888550,365.278412 165.228027,365.299255 
	C169.427109,365.557434 173.614746,366.001923 177.864441,366.807098 
z"/>
<path fill="#F0E9CD" opacity="1.000000" stroke="none" 
	d="
M183.853210,348.008911 
	C184.130722,348.288300 184.408218,348.567657 184.955475,348.979889 
	C181.380325,352.426636 177.258606,351.182495 172.962280,349.489319 
	C175.690659,348.950195 178.588120,348.769043 182.080109,348.295898 
	C183.067505,348.005585 183.460358,348.007233 183.853210,348.008911 
z"/>
<path fill="#F6BC36" opacity="1.000000" stroke="none" 
	d="
M132.812012,366.840210 
	C129.559570,367.217377 126.274010,367.183624 122.545418,367.233215 
	C124.131142,364.396118 128.762527,364.011200 132.812012,366.840210 
z"/>
<path fill="#F0E9CD" opacity="1.000000" stroke="none" 
	d="
M142.645096,349.358826 
	C145.307693,349.000763 148.094376,348.899506 151.326828,348.778931 
	C151.772583,348.759674 151.920990,348.942780 151.973236,349.283295 
	C152.017517,349.962677 152.009552,350.301514 152.001587,350.640381 
	C149.582809,350.692688 147.164032,350.745026 144.206711,350.560699 
	C143.514633,350.192535 143.340637,350.099152 143.146149,350.043884 
	C143.020493,349.901154 142.894852,349.758392 142.645096,349.358826 
z"/>
<path fill="#E5E3D1" opacity="1.000000" stroke="none" 
	d="
M185.312286,338.838043 
	C184.881012,337.250000 184.654861,335.410187 184.668640,333.296997 
	C185.100174,333.672180 185.291794,334.320740 185.702637,335.240356 
	C185.787033,336.536407 185.652237,337.561310 185.312286,338.838043 
z"/>
<path fill="#E5E3D1" opacity="1.000000" stroke="none" 
	d="
M184.828827,300.715240 
	C184.188370,301.023499 183.553925,301.029297 182.601654,301.030212 
	C182.240463,300.624634 182.197052,300.223999 182.222198,299.524750 
	C183.138763,299.621704 183.986801,300.017242 184.828827,300.715240 
z"/>
<path fill="#F5EECF" opacity="1.000000" stroke="none" 
	d="
M152.333771,350.724335 
	C152.009552,350.301514 152.017517,349.962677 152.051010,349.371826 
	C152.564789,349.064880 153.053055,349.009918 153.908630,348.919617 
	C154.452301,348.897827 154.628632,348.911316 155.046753,349.037872 
	C154.414337,349.703369 153.540161,350.255829 152.333771,350.724335 
z"/>
<path fill="#EAE7D4" opacity="1.000000" stroke="none" 
	d="
M220.692566,349.003967 
	C221.005096,349.364990 221.013107,349.655365 221.038895,350.160217 
	C220.681366,350.121094 220.312439,349.867371 219.859604,349.372650 
	C219.977707,349.065582 220.179703,348.999542 220.692566,349.003967 
z"/>
<path fill="#F6BC36" opacity="1.000000" stroke="none" 
	d="
M133.870193,367.705811 
	C133.686722,367.811127 133.351395,367.710480 132.897995,367.369934 
	C133.092728,367.253296 133.405533,367.376587 133.870193,367.705811 
z"/>
<path fill="#F6BC36" opacity="1.000000" stroke="none" 
	d="
M134.913361,368.737793 
	C134.721069,368.832825 134.479340,368.651184 134.205246,368.180756 
	C134.394714,368.098846 134.625046,368.288574 134.913361,368.737793 
z"/>
<path fill="#EAE7D4" opacity="1.000000" stroke="none" 
	d="
M229.223145,350.194885 
	C229.249069,350.142670 229.215179,350.196442 229.193695,350.201843 
	C229.172211,350.207214 229.197220,350.247070 229.223145,350.194885 
z"/>
<path fill="#F5EECF" opacity="1.000000" stroke="none" 
	d="
M143.200775,350.209442 
	C143.340637,350.099152 143.514633,350.192535 143.769455,350.431152 
	C143.870743,350.538239 143.527557,350.590363 143.527557,350.590363 
	C143.527557,350.590363 143.255417,350.375000 143.200775,350.209442 
z"/>
<path fill="#F8B824" opacity="1.000000" stroke="none" 
	d="
M210.743698,235.731918 
	C208.500626,237.350174 206.205215,238.537231 204.799515,240.396835 
	C195.282913,252.986359 185.954330,265.717987 176.171066,278.935822 
	C173.486298,275.404236 171.079880,272.292511 168.730484,269.138336 
	C161.570496,259.525726 154.542847,249.811203 147.199570,240.341156 
	C145.591431,238.267273 143.116989,236.421661 140.656876,235.517776 
	C97.472710,219.651031 69.917564,179.091385 71.271286,133.106796 
	C72.798920,81.214355 114.611908,37.025734 166.122726,32.866329 
	C222.194366,28.338646 269.994598,65.074493 279.701843,120.155136 
	C288.203064,168.392700 259.928864,217.007050 212.966553,234.899124 
	C212.345078,235.135925 211.724167,235.374252 210.743698,235.731918 
M241.948502,170.367508 
	C248.925308,156.239349 251.245651,141.452026 249.135376,125.768738 
	C244.306549,89.881523 209.550308,61.100655 173.417984,63.165661 
	C125.848366,65.884323 97.741844,107.320427 102.758102,146.538773 
	C107.353149,182.463959 140.886292,212.206436 177.155823,210.672928 
	C205.879593,209.458496 227.480270,196.208435 241.948502,170.367508 
z"/>
<path fill="#E5E3D1" opacity="1.000000" stroke="none" 
	d="
M183.903229,347.672424 
	C183.460358,348.007233 183.067505,348.005585 182.380066,348.005981 
	C182.083542,347.548737 182.081604,347.089417 182.179779,346.300690 
	C182.634567,345.979218 182.989258,345.987152 183.610016,345.991699 
	C183.901810,346.437531 183.927521,346.886719 183.903229,347.672424 
z"/>
<path fill="#DEDDD7" opacity="1.000000" stroke="none" 
	d="
M197.928314,329.729675 
	C198.348007,325.686890 198.740799,322.075104 199.133575,318.463287 
	C199.418610,318.444397 199.703644,318.425476 199.988693,318.406555 
	C200.395096,322.387604 200.945343,326.362701 201.110291,330.353729 
	C201.153397,331.396606 199.997955,332.489014 199.392990,333.558685 
	C198.895798,332.425995 198.398590,331.293304 197.928314,329.729675 
z"/>
<path fill="#D6D6D6" opacity="1.000000" stroke="none" 
	d="
M137.329895,324.749634 
	C137.587296,327.149261 138.092545,329.171417 137.848969,331.098907 
	C137.717194,332.141724 136.307312,333.023010 135.473999,333.977203 
	C135.043564,333.631165 134.613113,333.285126 134.182678,332.939087 
	C134.708038,328.300995 135.233414,323.662903 135.758789,319.024780 
	C136.101959,319.045959 136.445129,319.067108 136.788300,319.088257 
	C136.947479,320.836426 137.106644,322.584564 137.329895,324.749634 
z"/>
<path fill="#0C0907" opacity="1.000000" stroke="none" 
	d="
M241.774902,170.697708 
	C227.480270,196.208435 205.879593,209.458496 177.155823,210.672928 
	C140.886292,212.206436 107.353149,182.463959 102.758102,146.538773 
	C97.741844,107.320427 125.848366,65.884323 173.417984,63.165661 
	C209.550308,61.100655 244.306549,89.881523 249.135376,125.768738 
	C251.245651,141.452026 248.925308,156.239349 241.774902,170.697708 
M146.957581,197.641098 
	C160.009308,203.690125 173.594101,205.509933 187.814911,203.139404 
	C223.514786,197.188492 248.335602,162.810532 242.844910,126.770859 
	C237.340973,90.644157 202.842316,64.936951 166.965225,70.227928 
	C136.889038,74.663406 114.562103,96.697380 109.345306,127.091805 
	C104.561562,154.963196 119.684807,183.657257 146.957581,197.641098 
z"/>
<path fill="#E9E9E9" opacity="1.000000" stroke="none" 
	d="
M146.638184,197.442245 
	C119.684807,183.657257 104.561562,154.963196 109.345306,127.091805 
	C114.562103,96.697380 136.889038,74.663406 166.965225,70.227928 
	C202.842316,64.936951 237.340973,90.644157 242.844910,126.770859 
	C248.335602,162.810532 223.514786,197.188492 187.814911,203.139404 
	C173.594101,205.509933 160.009308,203.690125 146.638184,197.442245 
M193.800659,144.883698 
	C194.209335,145.432205 194.617996,145.980698 194.633987,146.544098 
	C194.633987,146.544098 194.529358,146.922882 193.817871,146.823334 
	C191.522949,148.762115 189.228012,150.700897 186.219833,152.782059 
	C185.496567,152.753204 184.773285,152.724335 184.006622,152.130676 
	C183.928848,151.958618 183.851089,151.786560 183.960510,150.954590 
	C182.927872,149.407730 181.697708,147.946548 180.969376,146.267685 
	C180.713409,145.677689 181.688309,144.553696 182.199158,144.329025 
	C182.802521,144.544983 183.405869,144.760941 184.278580,145.706268 
	C185.162384,146.152832 186.046173,146.599396 186.929962,147.045975 
	C186.958298,145.028549 186.986633,143.011139 186.771622,140.471619 
	C186.688904,140.298340 186.606201,140.125061 187.108170,139.330978 
	C189.910248,138.861053 192.712341,138.391129 195.514420,137.921204 
	C195.443771,137.260895 195.373138,136.600586 195.302490,135.940277 
	C193.535233,135.940277 191.767990,135.940277 189.934906,135.345291 
	C189.593292,134.886475 189.251678,134.427673 189.265152,133.248093 
	C190.647812,132.899460 192.030457,132.550842 193.413116,132.202225 
	C193.379593,131.802795 193.346069,131.403366 193.312531,131.003952 
	C190.548355,130.656342 187.784164,130.308716 185.003555,130.004288 
	C185.003555,130.004288 185.042450,129.978806 184.969177,129.152344 
	C187.075165,128.302673 189.181152,127.453018 191.287140,126.603355 
	C191.211533,126.167801 191.135941,125.732254 191.060349,125.296700 
	C188.709793,125.184731 186.359253,125.072754 184.002945,124.499794 
	C184.002945,124.499794 184.023773,124.039246 184.316650,123.562263 
	C184.306274,123.207481 184.295898,122.852699 185.003159,122.182823 
	C188.745087,118.201988 181.925339,121.195808 183.411606,118.701233 
	C183.608017,118.159164 183.804428,117.617096 184.745819,116.878235 
	C185.465439,116.429878 186.185074,115.981522 186.904694,115.533165 
	C186.369095,115.075668 185.887619,114.331711 185.287033,114.218231 
	C183.885941,113.953506 182.427567,113.991936 180.996719,113.237320 
	C181.025497,112.568031 181.054276,111.898743 181.871643,111.147713 
	C182.795258,111.083549 183.718857,111.019386 184.642471,110.955223 
	C184.683655,110.498161 184.724823,110.041092 184.766006,109.584023 
	C182.844849,109.334023 180.923676,109.084023 179.000610,108.131668 
	C179.000443,107.429291 179.000290,106.726906 179.745987,105.893707 
	C180.480759,105.787560 181.215546,105.681404 182.487213,105.496208 
	C182.347687,104.948807 182.208160,104.401413 181.776978,103.359390 
	C180.560440,103.280151 179.343918,103.200912 177.663315,102.934677 
	C177.506592,102.991684 177.349854,103.048691 176.815460,102.948868 
	C176.534592,102.897430 176.270248,102.942604 175.359589,102.890907 
	C174.904648,102.938789 174.449692,102.986671 173.328201,102.796120 
	C172.876846,102.903511 172.425507,103.010902 172.160629,102.639343 
	C172.181946,102.469353 172.203278,102.299355 173.041290,101.994591 
	C173.007446,100.660675 172.973602,99.326767 173.536972,97.893349 
	C174.024673,97.588051 174.512360,97.282761 175.078888,97.573792 
	C175.746185,97.648819 176.413483,97.723854 177.830856,97.863403 
	C179.401016,97.516052 180.971176,97.168694 182.890198,96.744171 
	C178.051605,92.303909 172.695633,91.706612 167.190872,94.342072 
	C164.130295,95.895638 161.069717,97.449203 157.391739,99.079605 
	C156.915192,99.355782 156.438629,99.631958 155.245743,99.949883 
	C153.732086,101.398003 151.541962,102.579681 150.844879,104.349434 
	C149.370758,108.091896 145.946014,111.952911 149.898285,116.996941 
	C150.930511,119.833519 151.843613,122.720634 153.020584,125.495827 
	C155.248322,130.748642 157.627563,135.937225 159.934875,141.820267 
	C160.687088,144.552277 161.439301,147.284302 161.983795,150.930466 
	C161.983795,156.891342 161.983795,162.852219 161.983795,169.921906 
	C164.328445,168.498444 165.607605,167.721848 167.646881,166.962936 
	C168.152390,166.929993 168.657913,166.897064 169.712006,166.318924 
	C169.829971,163.619522 169.947922,160.920135 170.112091,157.163406 
	C171.729584,158.641891 172.600357,159.437836 173.246506,160.959137 
	C174.189423,161.873016 175.132324,162.786911 176.075241,163.700806 
	C176.441589,163.155487 176.807953,162.610184 177.174301,162.064865 
	C175.965134,161.481766 174.755951,160.898666 173.992828,159.682892 
	C175.651215,158.686996 177.309601,157.691101 179.778961,156.773376 
	C181.642014,156.410095 183.505066,156.046829 185.821259,155.595200 
	C185.821259,158.431732 185.821259,160.713196 185.232605,163.108566 
	C185.150513,164.337631 185.068420,165.566711 184.476257,167.016205 
	C184.306183,167.416367 184.136124,167.816528 183.966064,168.216690 
	C185.293365,167.858322 186.620667,167.499969 187.987488,166.608368 
	C187.991211,166.430862 187.994934,166.253372 188.802094,165.885300 
	C189.757019,164.527145 191.278290,163.271317 191.546097,161.789017 
	C192.064957,158.917236 191.878403,155.918015 192.768127,153.356339 
	C192.768127,157.655701 192.768127,161.955063 192.768127,166.254425 
	C193.037491,166.250748 193.306870,166.247055 193.576233,166.243378 
	C193.950668,161.771591 194.325089,157.299805 195.378326,152.716431 
	C196.238602,151.812515 197.098892,150.908600 198.375839,150.009811 
	C198.375839,150.009811 198.792450,150.019043 199.232666,150.355209 
	C199.502686,149.751938 199.772705,149.148666 200.020477,148.508698 
	C200.020477,148.508698 199.977615,148.510788 200.557617,148.078079 
	C200.889572,147.729294 201.221512,147.380524 202.081985,146.807693 
	C202.548660,146.218140 203.015335,145.628601 203.483322,145.008240 
	C203.483322,145.008240 203.513916,145.006317 203.920273,145.546280 
	C204.294312,144.960037 204.668350,144.373795 205.239410,143.324554 
	C204.525269,143.127121 203.811142,142.929703 202.339813,142.875153 
	C201.144577,143.219864 199.949326,143.564575 198.472076,143.957657 
	C198.472076,143.957657 198.185425,143.982529 198.117538,143.346024 
	C197.664352,142.869171 197.211166,142.392319 196.180008,141.906967 
	C195.796875,141.931976 195.413742,141.956970 194.470642,141.632507 
	C194.282104,141.745895 194.093567,141.859299 193.358307,142.071838 
	C193.050232,142.369232 192.742142,142.666611 192.434052,142.963989 
	C192.867859,143.310165 193.301682,143.656326 193.800659,144.883698 
M183.963791,171.498993 
	C183.633148,171.364944 183.302505,171.230911 182.244736,170.904495 
	C180.806610,171.235519 179.368469,171.566528 177.044830,171.784775 
	C174.527008,171.974136 172.009186,172.163498 169.491379,172.352875 
	C169.496902,172.577286 169.502426,172.801712 169.507950,173.026123 
	C171.554642,173.026123 173.601334,173.026123 175.804596,173.026123 
	C176.000809,176.313171 176.174911,179.229797 176.284073,183.061172 
	C176.284073,188.118149 176.284073,193.175140 176.284073,198.468918 
	C174.694000,198.081345 174.413681,198.050919 174.411575,198.007141 
	C174.064285,190.770203 173.736954,183.532318 173.409210,176.302643 
	C161.304855,174.579620 159.179718,171.882385 158.944077,159.349304 
	C158.854996,154.611664 158.596924,149.649292 157.130142,145.214630 
	C154.389389,136.928268 150.660583,128.971909 147.432220,120.842773 
	C143.606155,111.208595 144.749527,103.833984 151.243927,98.704498 
	C160.861404,91.108315 171.827942,88.943573 183.731476,91.621719 
	C188.591736,92.715225 192.129120,95.606400 193.937149,100.314613 
	C198.362198,111.837639 202.795593,123.358696 207.067688,134.938812 
	C210.025101,142.955231 207.765076,149.341675 200.292450,152.759369 
	C196.905167,154.308563 195.894623,156.233078 196.246384,159.589401 
	C196.436401,161.402405 196.269485,163.252151 196.275177,165.085297 
	C196.286484,168.727280 194.522797,171.032623 191.053909,172.079773 
	C189.493530,172.550827 187.942978,173.054413 186.524597,173.500275 
	C186.524597,182.121063 186.524597,190.384293 186.524597,198.966568 
	C187.897369,198.836563 189.043610,198.854553 190.129196,198.606796 
	C222.157578,191.297333 242.596527,161.874634 238.923492,128.402588 
	C235.624359,98.337669 208.461975,74.357437 177.107193,73.828232 
	C137.085281,73.152740 106.814476,109.005867 113.767776,148.295502 
	C118.865662,177.101120 146.211090,203.041107 182.645432,199.957962 
	C183.166962,199.564072 184.145645,199.166458 184.142471,198.776871 
	C184.080231,191.156143 183.903671,183.536362 183.845337,175.147781 
	C183.824875,174.116104 183.804413,173.084442 183.963791,171.498993 
M179.693466,160.167557 
	C179.205124,160.515701 178.716797,160.863846 178.228455,161.211990 
	C180.284042,162.998276 179.325180,164.604950 178.186859,166.461197 
	C177.826660,167.048569 178.625595,168.346756 179.018524,169.770767 
	C181.430969,166.428497 183.958588,163.734879 179.693466,160.167557 
M192.766373,115.608154 
	C193.955963,115.357124 195.145554,115.106087 196.335129,114.855057 
	C196.062897,114.220940 195.790649,113.586823 195.518402,112.952698 
	C194.453766,113.667603 193.389130,114.382500 192.766373,115.608154 
M185.573288,94.742996 
	C184.727692,96.937973 184.727692,96.937973 190.107620,98.445801 
	C188.068741,96.757980 187.068161,95.929695 185.573288,94.742996 
M198.172989,119.101334 
	C197.769913,118.264214 197.366821,117.427101 196.963745,116.589981 
	C196.544479,116.939568 196.125214,117.289146 195.705948,117.638725 
	C196.377869,118.255623 197.049789,118.872513 198.172989,119.101334 
M199.093170,126.300697 
	C198.570938,126.486046 198.048721,126.671394 197.526489,126.856750 
	C197.648163,127.125847 197.769836,127.394936 197.891525,127.664017 
	C198.429184,127.350021 198.966843,127.036026 199.093170,126.300697 
M198.813629,135.429703 
	C198.808884,135.800201 198.804138,136.170685 198.799408,136.541183 
	C198.953171,136.542862 199.240555,136.555145 199.241379,136.544693 
	C199.270630,136.176086 199.272964,135.805359 198.813629,135.429703 
M195.283615,125.460228 
	C195.013214,125.718056 194.740219,125.973488 194.486679,126.246933 
	C194.480042,126.254082 194.685516,126.457909 194.792068,126.570023 
	C195.062271,126.312180 195.332489,126.054337 195.283615,125.460228 
M200.806961,131.424683 
	C200.802612,131.797302 200.794708,132.170120 200.813400,132.541580 
	C200.813889,132.551285 201.238815,132.556961 201.239594,132.546875 
	C201.268570,132.175781 201.270737,131.802597 200.806961,131.424683 
M202.341919,148.406982 
	C202.341919,148.406982 202.521835,148.502090 202.521835,148.502090 
	C202.521835,148.502090 202.486725,148.281158 202.341919,148.406982 
z"/>
<path fill="#030303" opacity="1.000000" stroke="none" 
	d="
M181.923752,199.822662 
	C146.211090,203.041107 118.865662,177.101120 113.767776,148.295502 
	C106.814476,109.005867 137.085281,73.152740 177.107193,73.828232 
	C208.461975,74.357437 235.624359,98.337669 238.923492,128.402588 
	C242.596527,161.874634 222.157578,191.297333 190.129196,198.606796 
	C189.043610,198.854553 187.897369,198.836563 186.524597,198.966568 
	C186.524597,190.384293 186.524597,182.121063 186.524597,173.500275 
	C187.942978,173.054413 189.493530,172.550827 191.053909,172.079773 
	C194.522797,171.032623 196.286484,168.727280 196.275177,165.085297 
	C196.269485,163.252151 196.436401,161.402405 196.246384,159.589401 
	C195.894623,156.233078 196.905167,154.308563 200.292450,152.759369 
	C207.765076,149.341675 210.025101,142.955231 207.067688,134.938812 
	C202.795593,123.358696 198.362198,111.837639 193.937149,100.314613 
	C192.129120,95.606400 188.591736,92.715225 183.731476,91.621719 
	C171.827942,88.943573 160.861404,91.108315 151.243927,98.704498 
	C144.749527,103.833984 143.606155,111.208595 147.432220,120.842773 
	C150.660583,128.971909 154.389389,136.928268 157.130142,145.214630 
	C158.596924,149.649292 158.854996,154.611664 158.944077,159.349304 
	C159.179718,171.882385 161.304855,174.579620 173.409210,176.302643 
	C173.736954,183.532318 174.064285,190.770203 174.411575,198.007141 
	C174.413681,198.050919 174.694000,198.081345 176.284073,198.468918 
	C176.284073,193.175140 176.284073,188.118149 176.697723,182.491684 
	C177.384354,178.580643 177.657349,175.239105 177.930344,171.897552 
	C179.368469,171.566528 180.806610,171.235519 182.701965,171.194443 
	C183.294754,171.753754 183.503006,171.943207 183.783966,172.052765 
	C183.804413,173.084442 183.824875,174.116104 183.492569,175.539032 
	C182.734741,175.969727 182.329681,176.009171 181.617889,175.885284 
	C181.118103,174.993515 180.925034,174.265060 180.515121,172.718414 
	C179.906769,174.040253 179.344284,174.698776 179.337967,175.362610 
	C179.269363,182.581802 179.243988,189.802536 179.356339,197.020508 
	C179.366653,197.682205 180.409256,198.327850 181.155609,199.097076 
	C181.623779,199.329910 181.818802,199.533066 181.923752,199.822662 
z"/>
<path fill="#030303" opacity="1.000000" stroke="none" 
	d="
M172.939758,97.992851 
	C172.973602,99.326767 173.007446,100.660675 172.330338,101.873764 
	C171.248352,101.425644 170.896973,101.072227 170.502838,100.775673 
	C168.925705,99.589020 167.335297,98.420036 165.749802,97.244514 
	C164.980194,98.809250 164.210587,100.373985 163.440979,101.938713 
	C165.426483,102.232903 163.549179,107.785995 167.731110,105.089920 
	C167.818878,105.728027 167.906647,106.366142 167.997192,107.002121 
	C168.000000,107.000000 168.004196,106.993980 167.709854,107.087326 
	C166.613007,107.784706 165.810486,108.388733 165.024902,109.249893 
	C165.686920,109.682915 166.331985,109.858803 167.318726,109.913910 
	C170.398453,108.854530 173.136505,107.915939 176.002060,107.291443 
	C177.087219,108.015030 178.044861,108.424530 179.002518,108.834030 
	C180.923676,109.084023 182.844849,109.334023 184.766006,109.584023 
	C184.724823,110.041092 184.683655,110.498161 184.642471,110.955223 
	C183.718857,111.019386 182.795258,111.083549 181.044662,111.072708 
	C175.940369,111.024635 171.468048,110.573524 169.314194,116.211639 
	C173.206924,115.443611 177.099655,114.675583 180.992401,113.907562 
	C182.427567,113.991936 183.885941,113.953506 185.287033,114.218231 
	C185.887619,114.331711 186.369095,115.075668 186.904694,115.533165 
	C186.185074,115.981522 185.465439,116.429878 184.044525,116.886505 
	C182.889084,116.903130 182.434952,116.911484 181.751770,116.646530 
	C180.342941,116.245613 179.163177,116.117996 177.765533,116.115669 
	C177.359344,116.513390 177.171036,116.785828 176.613098,117.061150 
	C175.843430,117.327332 175.443375,117.590622 174.769699,117.898964 
	C174.263519,118.622482 174.030991,119.300949 173.492538,119.940353 
	C172.113586,119.923119 171.040543,119.944962 169.669617,120.017609 
	C167.651184,120.284622 165.930664,120.500824 163.565155,120.798073 
	C164.498718,121.583656 165.406982,122.347946 166.339935,123.458611 
	C166.251251,124.245277 166.137863,124.685570 165.620117,125.102310 
	C164.475525,125.615646 163.735275,126.152542 162.995041,126.689438 
	C163.986160,127.074196 164.977295,127.458939 166.326599,128.035782 
	C166.781860,130.114929 166.878937,132.001968 166.659729,133.844055 
	C165.306274,133.236603 164.269104,132.674118 162.919601,131.996231 
	C161.444214,132.571075 160.281158,133.261322 159.118088,133.951569 
	C160.336655,134.641830 161.555206,135.332092 162.843109,136.346268 
	C162.865601,137.106873 162.818756,137.543579 162.452728,138.030609 
	C161.403687,139.104797 160.673782,140.128647 159.943878,141.152481 
	C157.627563,135.937225 155.248322,130.748642 153.020584,125.495827 
	C151.843613,122.720634 150.930511,119.833519 150.071533,116.352005 
	C151.299988,115.418022 152.355225,115.128975 153.410446,114.839928 
	C153.410446,114.839928 159.943588,114.018784 159.943588,114.018784 
	C160.334610,113.040115 160.725616,112.061440 161.254883,110.853851 
	C160.929108,110.139999 160.465118,109.655075 160.001114,109.170158 
	C159.618576,109.756866 159.236038,110.343575 158.619873,111.149353 
	C157.033905,111.438118 155.549133,111.856972 154.390030,111.417282 
	C153.877655,111.222931 153.512024,108.994301 153.968262,108.198547 
	C155.418228,105.669518 157.286102,103.380074 158.987549,100.697021 
	C158.658142,99.931595 158.333633,99.467178 158.009140,99.002762 
	C161.069717,97.449203 164.130295,95.895638 167.684143,94.847610 
	C169.764862,96.233055 171.352325,97.112953 172.939758,97.992851 
M162.384415,116.552345 
	C161.744705,117.084160 161.104980,117.615974 160.465256,118.147789 
	C160.822357,118.444092 161.179459,118.740395 161.536560,119.036697 
	C161.941696,118.363113 162.346832,117.689537 162.384415,116.552345 
M163.508911,111.414978 
	C163.508911,111.414978 163.565933,111.514908 163.508911,111.414978 
M169.598312,117.517288 
	C169.598312,117.517288 169.479172,117.589874 169.598312,117.517288 
z"/>
<path fill="#0E0E0E" opacity="1.000000" stroke="none" 
	d="
M190.000732,135.940277 
	C191.767990,135.940277 193.535233,135.940277 195.302490,135.940277 
	C195.373138,136.600586 195.443771,137.260895 195.514420,137.921204 
	C192.712341,138.391129 189.910248,138.861053 186.573975,139.662048 
	C185.899521,140.240906 185.759247,140.488708 185.618988,140.736526 
	C186.084320,140.822266 186.549637,140.907990 187.014969,140.993713 
	C186.986633,143.011139 186.958298,145.028549 186.929962,147.045975 
	C186.046173,146.599396 185.162384,146.152832 184.134949,145.054596 
	C183.361282,144.159790 182.731232,143.916656 182.101181,143.673523 
	C181.688309,144.553696 180.713409,145.677689 180.969376,146.267685 
	C181.697708,147.946548 182.927872,149.407730 183.548950,151.336151 
	C182.866882,152.005142 182.596390,152.292572 182.325897,152.580002 
	C182.900604,152.618500 183.475311,152.656982 184.050018,152.695465 
	C184.773285,152.724335 185.496567,152.753204 186.928223,152.783752 
	C189.056091,152.598785 190.475586,152.412140 191.878662,152.416626 
	C191.862259,152.607773 191.984161,152.971603 191.984161,152.971603 
	C191.878403,155.918015 192.064957,158.917236 191.546097,161.789017 
	C191.278290,163.271317 189.757019,164.527145 188.074432,165.907043 
	C186.902527,165.937927 186.458313,165.947083 185.979462,165.586319 
	C185.903656,164.475815 185.862457,163.735245 185.821259,162.994675 
	C185.821259,160.713196 185.821259,158.431732 185.821259,155.595200 
	C183.505066,156.046829 181.642014,156.410095 179.074646,156.468567 
	C175.286057,156.075333 172.201782,155.986908 169.072205,155.440216 
	C169.036026,152.839935 168.813950,150.665695 169.107101,148.563324 
	C169.575378,145.205231 170.385956,141.894867 171.016327,138.860535 
	C171.339249,140.063843 171.697632,140.970963 172.013947,142.253082 
	C171.791351,143.891022 171.610840,145.153915 171.404282,146.599121 
	C172.894562,146.894409 174.122726,147.137772 175.628723,147.436188 
	C174.623627,145.241837 173.824875,143.498001 173.019409,141.455536 
	C173.013794,140.758682 173.014923,140.360474 173.226746,139.859558 
	C173.705276,139.570679 173.885208,139.321091 174.228973,139.007263 
	C174.648499,139.006851 174.816299,139.007339 175.365448,139.018524 
	C180.373886,141.012329 183.663284,138.080521 187.519684,135.974686 
	C188.584381,135.998322 189.292557,135.969299 190.000732,135.940277 
z"/>
<path fill="#131313" opacity="1.000000" stroke="none" 
	d="
M172.056030,141.878067 
	C171.697632,140.970963 171.339249,140.063843 170.953369,138.508911 
	C170.665665,137.226257 170.405457,136.591431 170.350647,135.790222 
	C170.413254,134.794418 170.270447,133.964996 170.354950,133.085052 
	C170.829636,132.879318 171.077042,132.724121 171.324448,132.568909 
	C170.858749,132.678085 170.393066,132.787262 169.765244,132.911896 
	C169.603119,132.927353 169.281113,132.976501 169.151154,132.551880 
	C169.005661,130.161316 169.302811,128.121338 168.861252,126.256264 
	C168.581253,125.073624 167.201675,124.151299 166.315231,123.112236 
	C165.406982,122.347946 164.498718,121.583656 163.565155,120.798073 
	C165.930664,120.500824 167.651184,120.284622 169.814011,120.334129 
	C171.171249,121.733223 172.086182,122.866615 172.996948,124.382019 
	C173.140976,126.056488 173.289154,127.348953 173.588181,129.957184 
	C174.760071,127.818146 175.252029,126.920174 175.933487,126.320297 
	C177.710297,126.347183 179.297607,126.075974 181.196045,125.867310 
	C182.071762,125.693047 182.636353,125.456245 183.417908,125.201675 
	C183.634872,125.183914 184.008698,124.960777 184.008698,124.960777 
	C186.359253,125.072754 188.709793,125.184731 191.060349,125.296700 
	C191.135941,125.732254 191.211533,126.167801 191.287140,126.603355 
	C189.181152,127.453018 187.075165,128.302673 184.644073,129.559631 
	C181.452896,129.365997 178.512451,128.035797 175.826828,130.291412 
	C175.175568,130.838364 174.702393,131.947861 174.706757,132.795807 
	C174.709457,133.319595 176.022125,134.402710 176.315247,134.271423 
	C179.267990,132.948914 182.131424,131.426971 185.019974,129.961090 
	C187.784164,130.308716 190.548355,130.656342 193.312531,131.003952 
	C193.346069,131.403366 193.379593,131.802795 193.413116,132.202225 
	C192.030457,132.550842 190.647812,132.899460 188.821075,133.703644 
	C187.931946,134.479279 187.486908,134.799347 186.988922,134.777374 
	C186.339828,134.036636 185.604004,133.182388 185.170807,133.315201 
	C182.841980,134.029160 180.493408,134.806946 178.344284,135.931000 
	C177.043610,136.611313 176.092331,137.959625 174.984085,139.007812 
	C174.816299,139.007339 174.648499,139.006851 174.023743,139.116547 
	C173.307190,139.414963 173.123596,139.660141 173.016037,139.962250 
	C173.014923,140.360474 173.013794,140.758682 172.779373,141.507370 
	C172.546066,141.857834 172.056030,141.878067 172.056030,141.878067 
z"/>
<path fill="#161616" opacity="1.000000" stroke="none" 
	d="
M161.116638,111.082771 
	C160.725616,112.061440 160.334610,113.040115 159.943588,114.018784 
	C159.943588,114.018784 153.410446,114.839928 153.410446,114.839928 
	C152.355225,115.128975 151.299988,115.418022 150.062897,115.962769 
	C145.946014,111.952911 149.370758,108.091896 150.844879,104.349434 
	C151.541962,102.579681 153.732086,101.398003 155.810760,100.198975 
	C157.248001,100.631393 158.120224,100.814720 158.992462,100.998039 
	C157.286102,103.380074 155.418228,105.669518 153.968262,108.198547 
	C153.512024,108.994301 153.877655,111.222931 154.390030,111.417282 
	C155.549133,111.856972 157.033905,111.438118 158.997620,111.182526 
	C160.111557,111.025330 160.614090,111.054054 161.116638,111.082771 
z"/>
<path fill="#C7C7C7" opacity="1.000000" stroke="none" 
	d="
M166.339935,123.458611 
	C167.201675,124.151299 168.581253,125.073624 168.861252,126.256264 
	C169.302811,128.121338 169.005661,130.161316 169.176697,132.867432 
	C169.603195,134.390594 169.874222,135.173599 170.145248,135.956604 
	C170.405457,136.591431 170.665665,137.226257 170.988831,138.212708 
	C170.385956,141.894867 169.575378,145.205231 169.107101,148.563324 
	C168.813950,150.665695 169.036026,152.839935 168.998108,155.898071 
	C169.034027,160.164185 169.098724,163.514145 169.163422,166.864136 
	C168.657913,166.897064 168.152390,166.929993 167.319595,166.492035 
	C166.987564,160.046997 166.982803,154.072891 166.986420,147.627060 
	C166.988525,142.733231 166.982269,138.311127 166.976013,133.889008 
	C166.878937,132.001968 166.781860,130.114929 166.345490,127.696350 
	C166.012299,126.485161 166.018387,125.805511 166.024475,125.125862 
	C166.137863,124.685570 166.251251,124.245277 166.339935,123.458611 
z"/>
<path fill="#070707" opacity="1.000000" stroke="none" 
	d="
M166.978043,148.098785 
	C166.982803,154.072891 166.987564,160.046997 166.939545,166.483185 
	C165.607605,167.721848 164.328445,168.498444 161.983795,169.921906 
	C161.983795,162.852219 161.983795,156.891342 162.421005,150.472900 
	C163.300888,149.978516 163.743576,149.941666 164.464859,149.731110 
	C165.488327,149.071167 166.233185,148.584976 166.978043,148.098785 
z"/>
<path fill="#1A1A1A" opacity="1.000000" stroke="none" 
	d="
M165.007980,108.992752 
	C165.810486,108.388733 166.613007,107.784706 167.769150,107.201065 
	C168.122787,107.221458 168.425705,107.236916 168.425705,107.236916 
	C168.425705,107.236916 167.994400,107.004250 167.994400,107.004250 
	C167.906647,106.366142 167.818878,105.728027 167.731110,105.089920 
	C163.549179,107.785995 165.426483,102.232903 163.440979,101.938713 
	C164.210587,100.373985 164.980194,98.809250 165.749802,97.244514 
	C167.335297,98.420036 168.925705,99.589020 170.502838,100.775673 
	C170.896973,101.072227 171.248352,101.425644 171.921997,101.941147 
	C172.203278,102.299355 172.181946,102.469353 172.151794,103.152443 
	C172.459122,103.956520 172.775314,104.247498 173.091507,104.538467 
	C173.392593,104.037163 173.693665,103.535858 173.994751,103.034554 
	C174.449692,102.986671 174.904648,102.938789 175.864655,103.157944 
	C176.369705,103.424980 176.853668,103.452217 176.853668,103.452217 
	C176.853668,103.452217 177.193130,103.105690 177.193130,103.105690 
	C177.349854,103.048691 177.506592,102.991684 177.669342,103.277824 
	C177.788849,104.241936 177.902359,104.862907 177.729111,105.651962 
	C176.919754,106.205811 176.397156,106.591576 175.874557,106.977341 
	C173.136505,107.915939 170.398453,108.854530 167.152466,109.670578 
	C166.098999,109.362938 165.553497,109.177849 165.007980,108.992752 
z"/>
<path fill="#1A1A1A" opacity="1.000000" stroke="none" 
	d="
M173.001114,124.000000 
	C172.086182,122.866615 171.171249,121.733223 170.111908,120.283318 
	C171.040543,119.944962 172.113586,119.923119 173.698059,120.313049 
	C174.899521,120.342583 175.589508,119.960350 176.234467,119.571823 
	C176.189407,119.565521 176.271347,119.574600 176.460327,119.608292 
	C176.649292,119.641983 176.895065,119.347061 177.047699,119.308487 
	C177.200333,119.269913 177.410156,119.034653 177.560822,118.758636 
	C177.802139,117.651878 177.892776,116.821129 177.983414,115.990387 
	C179.163177,116.117996 180.342941,116.245613 181.743103,116.966454 
	C182.282455,118.049431 182.601440,118.539177 182.920410,119.028931 
	C181.925339,121.195808 188.745087,118.201988 184.280273,122.189758 
	C182.314514,122.399277 181.071671,122.601868 179.488373,122.836128 
	C178.327164,123.183144 177.506409,123.498482 176.436615,123.841904 
	C175.863617,123.944206 175.539688,124.018433 174.847168,124.066238 
	C173.986099,124.026550 173.493607,124.013275 173.001114,124.000000 
z"/>
<path fill="#515151" opacity="1.000000" stroke="none" 
	d="
M173.238373,97.943100 
	C171.352325,97.112953 169.764862,96.233055 168.074219,95.024429 
	C172.695633,91.706612 178.051605,92.303909 182.890198,96.744171 
	C180.971176,97.168694 179.401016,97.516052 177.296249,97.549454 
	C176.174438,97.149483 175.587250,97.063477 175.000046,96.977463 
	C174.512360,97.282761 174.024673,97.588051 173.238373,97.943100 
z"/>
<path fill="#3F3F3F" opacity="1.000000" stroke="none" 
	d="
M181.924622,176.048615 
	C182.329681,176.009171 182.734741,175.969727 183.445145,175.923340 
	C183.903671,183.536362 184.080231,191.156143 184.142471,198.776871 
	C184.145645,199.166458 183.166962,199.564072 182.284592,199.890320 
	C181.818802,199.533066 181.623779,199.329910 181.373749,198.729950 
	C181.580719,190.847321 181.752670,183.447968 181.924622,176.048615 
z"/>
<path fill="#A9A9A9" opacity="1.000000" stroke="none" 
	d="
M180.994568,113.572433 
	C177.099655,114.675583 173.206924,115.443611 169.314194,116.211639 
	C171.468048,110.573524 175.940369,111.024635 180.650360,111.113571 
	C181.054276,111.898743 181.025497,112.568031 180.994568,113.572433 
z"/>
<path fill="#6D6D6D" opacity="1.000000" stroke="none" 
	d="
M169.437714,166.591522 
	C169.098724,163.514145 169.034027,160.164185 169.043411,156.356354 
	C172.201782,155.986908 175.286057,156.075333 178.669159,156.429489 
	C177.309601,157.691101 175.651215,158.686996 173.761169,160.002258 
	C173.529510,160.321640 173.471146,160.233780 173.471146,160.233780 
	C172.600357,159.437836 171.729584,158.641891 170.112091,157.163406 
	C169.947922,160.920135 169.829971,163.619522 169.437714,166.591522 
z"/>
<path fill="#161616" opacity="1.000000" stroke="none" 
	d="
M164.186249,149.904831 
	C163.743576,149.941666 163.300888,149.978516 162.524872,150.015839 
	C161.439301,147.284302 160.687088,144.552277 159.939377,141.486374 
	C160.673782,140.128647 161.403687,139.104797 162.541840,138.472168 
	C163.362167,142.543854 163.774200,146.224350 164.186249,149.904831 
z"/>
<path fill="#E3E3E3" opacity="1.000000" stroke="none" 
	d="
M180.050674,160.253113 
	C183.958588,163.734879 181.430969,166.428497 179.018524,169.770767 
	C178.625595,168.346756 177.826660,167.048569 178.186859,166.461197 
	C179.325180,164.604950 180.284042,162.998276 178.228455,161.211990 
	C178.716797,160.863846 179.205124,160.515701 180.050674,160.253113 
z"/>
<path fill="#515151" opacity="1.000000" stroke="none" 
	d="
M177.487579,171.841156 
	C177.657349,175.239105 177.384354,178.580643 176.730179,182.034302 
	C176.174911,179.229797 176.000809,176.313171 175.804596,173.026123 
	C173.601334,173.026123 171.554642,173.026123 169.507950,173.026123 
	C169.502426,172.801712 169.496902,172.577286 169.491379,172.352875 
	C172.009186,172.163498 174.527008,171.974136 177.487579,171.841156 
z"/>
<path fill="#C7C7C7" opacity="1.000000" stroke="none" 
	d="
M191.895081,152.225494 
	C190.475586,152.412140 189.056091,152.598785 187.284851,152.712555 
	C189.228012,150.700897 191.522949,148.762115 194.339478,147.200836 
	C194.993088,147.784409 195.125076,147.990463 195.111740,148.396912 
	C194.649841,149.401428 194.333267,150.205566 193.771698,151.193817 
	C192.982849,151.660461 192.438965,151.942978 191.895081,152.225494 
z"/>
<path fill="#A9A9A9" opacity="1.000000" stroke="none" 
	d="
M198.754089,143.909286 
	C199.949326,143.564575 201.144577,143.219864 202.816956,143.182556 
	C203.356750,144.006317 203.419373,144.522690 203.482010,145.039047 
	C203.015335,145.628601 202.548660,146.218140 201.293335,146.901184 
	C200.155411,147.011047 199.806122,147.027405 199.478790,147.020386 
	C199.500763,146.996979 199.539917,147.047821 199.046112,146.959656 
	C198.224411,146.936813 197.896515,147.002151 197.323242,147.280045 
	C196.470932,147.727234 195.863998,147.961868 195.257065,148.196503 
	C195.125076,147.990463 194.993088,147.784409 194.695221,147.250610 
	C194.529358,146.922882 194.633987,146.544098 194.792145,146.079163 
	C194.977066,144.403458 195.003845,143.192719 195.030609,141.981964 
	C195.413742,141.956970 195.796875,141.931976 196.530136,142.290710 
	C197.247070,143.440155 197.613876,144.205841 198.139252,145.056152 
	C198.449890,144.730286 198.601990,144.319794 198.754089,143.909286 
z"/>
<path fill="#515151" opacity="1.000000" stroke="none" 
	d="
M191.878662,152.416626 
	C192.438965,151.942978 192.982849,151.660461 193.983170,151.219757 
	C194.439606,151.061584 194.863052,151.108795 194.889862,151.398148 
	C194.844284,152.067673 194.771896,152.447845 194.699524,152.828018 
	C194.325089,157.299805 193.950668,161.771591 193.576233,166.243378 
	C193.306870,166.247055 193.037491,166.250748 192.768127,166.254425 
	C192.768127,161.955063 192.768127,157.655701 192.376144,153.163971 
	C191.984161,152.971603 191.862259,152.607773 191.878662,152.416626 
z"/>
<path fill="#030303" opacity="1.000000" stroke="none" 
	d="
M178.015854,105.483871 
	C177.902359,104.862907 177.788849,104.241936 177.901367,103.371323 
	C179.343918,103.200912 180.560440,103.280151 181.882095,103.892235 
	C181.974915,104.808472 181.962616,105.191864 181.950317,105.575256 
	C181.215546,105.681404 180.480759,105.787560 179.136154,105.807266 
	C178.356171,105.641853 178.186005,105.562866 178.015854,105.483871 
z"/>
<path fill="#E6E6E6" opacity="1.000000" stroke="none" 
	d="
M192.545441,115.352783 
	C193.389130,114.382500 194.453766,113.667603 195.518402,112.952698 
	C195.790649,113.586823 196.062897,114.220940 196.335129,114.855057 
	C195.145554,115.106087 193.955963,115.357124 192.545441,115.352783 
z"/>
<path fill="#E6E6E6" opacity="1.000000" stroke="none" 
	d="
M185.820435,94.922203 
	C187.068161,95.929695 188.068741,96.757980 190.107620,98.445801 
	C184.727692,96.937973 184.727692,96.937973 185.820435,94.922203 
z"/>
<path fill="#E3E3E3" opacity="1.000000" stroke="none" 
	d="
M173.358826,160.596466 
	C173.471146,160.233780 173.529510,160.321640 173.538147,160.318604 
	C174.755951,160.898666 175.965134,161.481766 177.174301,162.064865 
	C176.807953,162.610184 176.441589,163.155487 176.075241,163.700806 
	C175.132324,162.786911 174.189423,161.873016 173.358826,160.596466 
z"/>
<path fill="#E6E6E6" opacity="1.000000" stroke="none" 
	d="
M197.947357,119.295372 
	C197.049789,118.872513 196.377869,118.255623 195.705948,117.638725 
	C196.125214,117.289146 196.544479,116.939568 196.963745,116.589981 
	C197.366821,117.427101 197.769913,118.264214 197.947357,119.295372 
z"/>
<path fill="#6D6D6D" opacity="1.000000" stroke="none" 
	d="
M187.947968,167.141602 
	C186.620667,167.499969 185.293365,167.858322 183.966064,168.216690 
	C184.136124,167.816528 184.306183,167.416367 184.989380,166.919617 
	C185.673325,166.800598 185.844162,166.778168 186.332443,166.843781 
	C187.082596,167.001740 187.515274,167.071671 187.947968,167.141602 
z"/>
<path fill="#C7C7C7" opacity="1.000000" stroke="none" 
	d="
M176.685654,123.813828 
	C177.506409,123.498482 178.327164,123.183144 179.830765,122.968086 
	C181.683655,123.391991 182.853714,123.715614 184.023773,124.039246 
	C184.023773,124.039246 184.002945,124.499794 184.005829,124.730286 
	C184.008698,124.960777 183.634872,125.183914 183.054535,125.093735 
	C181.970169,125.001869 181.466156,125.000183 180.986084,124.991417 
	C181.010010,124.984344 181.020187,125.033211 180.866898,124.740387 
	C179.862137,124.309128 179.010651,124.170685 177.788239,123.994949 
	C177.173431,123.909721 176.929550,123.861778 176.685654,123.813828 
z"/>
<path fill="#C7C7C7" opacity="1.000000" stroke="none" 
	d="
M195.038925,152.772217 
	C194.771896,152.447845 194.844284,152.067673 195.171600,151.197769 
	C196.105804,150.089737 196.785080,149.471436 197.442657,149.081116 
	C197.468552,149.642868 197.647949,149.874741 197.959167,150.004669 
	C197.098892,150.908600 196.238602,151.812515 195.038925,152.772217 
z"/>
<path fill="#E6E6E6" opacity="1.000000" stroke="none" 
	d="
M177.729111,105.651962 
	C178.186005,105.562866 178.356171,105.641853 178.763214,105.872681 
	C179.000290,106.726906 179.000443,107.429291 179.001556,108.482849 
	C178.044861,108.424530 177.087219,108.015030 176.002060,107.291428 
	C176.397156,106.591576 176.919754,106.205811 177.729111,105.651962 
z"/>
<path fill="#E6E6E6" opacity="1.000000" stroke="none" 
	d="
M199.298828,126.511360 
	C198.966843,127.036026 198.429184,127.350021 197.891525,127.664017 
	C197.769836,127.394936 197.648163,127.125847 197.526489,126.856750 
	C198.048721,126.671394 198.570938,126.486046 199.298828,126.511360 
z"/>
<path fill="#E6E6E6" opacity="1.000000" stroke="none" 
	d="
M203.482666,145.023651 
	C203.419373,144.522690 203.356750,144.006317 203.195557,143.111115 
	C203.811142,142.929703 204.525269,143.127121 204.808411,143.639450 
	C204.089584,144.305008 203.801758,144.655670 203.513916,145.006317 
	C203.513916,145.006317 203.483322,145.008240 203.482666,145.023651 
z"/>
<path fill="#878787" opacity="1.000000" stroke="none" 
	d="
M184.170212,123.800751 
	C182.853714,123.715614 181.683655,123.391991 180.171204,122.936409 
	C181.071671,122.601868 182.314514,122.399277 183.921448,122.347305 
	C184.295898,122.852699 184.306274,123.207481 184.170212,123.800751 
z"/>
<path fill="#E3E3E3" opacity="1.000000" stroke="none" 
	d="
M186.014984,166.755753 
	C185.844162,166.778168 185.673325,166.800598 185.244400,166.809387 
	C185.068420,165.566711 185.150513,164.337631 185.526932,163.051620 
	C185.862457,163.735245 185.903656,164.475815 185.980011,165.786194 
	C186.015152,166.355988 186.014984,166.755753 186.014984,166.755753 
z"/>
<path fill="#1A1A1A" opacity="1.000000" stroke="none" 
	d="
M158.987549,100.697021 
	C158.120224,100.814720 157.248001,100.631393 156.168915,100.178101 
	C156.438629,99.631958 156.915192,99.355782 157.700439,99.041183 
	C158.333633,99.467178 158.658142,99.931595 158.987549,100.697021 
z"/>
<path fill="#E3E3E3" opacity="1.000000" stroke="none" 
	d="
M198.167511,150.007233 
	C197.647949,149.874741 197.468552,149.642868 197.520081,149.026550 
	C197.619202,148.744019 197.982864,148.539551 198.304993,148.353683 
	C198.931396,147.794479 199.235657,147.421143 199.539917,147.047821 
	C199.539917,147.047821 199.500763,146.996979 199.587769,147.394653 
	C199.775726,148.031830 199.876678,148.271301 199.977615,148.510788 
	C199.977615,148.510788 200.020477,148.508698 199.748383,148.703522 
	C199.248352,149.271912 199.020386,149.645477 198.792450,150.019043 
	C198.792450,150.019043 198.375839,150.009811 198.167511,150.007233 
z"/>
<path fill="#E6E6E6" opacity="1.000000" stroke="none" 
	d="
M187.041855,135.119400 
	C187.486908,134.799347 187.931946,134.479279 188.643524,134.064026 
	C189.251678,134.427673 189.593292,134.886475 189.967819,135.642792 
	C189.292557,135.969299 188.584381,135.998322 187.474167,135.776337 
	C187.072128,135.525299 187.041855,135.119400 187.041855,135.119400 
z"/>
<path fill="#E6E6E6" opacity="1.000000" stroke="none" 
	d="
M199.046371,135.432312 
	C199.272964,135.805359 199.270630,136.176086 199.241379,136.544693 
	C199.240555,136.555145 198.953171,136.542862 198.799408,136.541183 
	C198.804138,136.170685 198.808884,135.800201 199.046371,135.432312 
z"/>
<path fill="#131313" opacity="1.000000" stroke="none" 
	d="
M197.980698,144.971527 
	C197.613876,144.205841 197.247070,143.440155 196.819122,142.294983 
	C197.211166,142.392319 197.664352,142.869171 198.045868,143.900253 
	C197.976379,144.626846 197.978546,144.799194 197.980698,144.971527 
z"/>
<path fill="#E6E6E6" opacity="1.000000" stroke="none" 
	d="
M193.735489,144.002502 
	C193.301682,143.656326 192.867859,143.310165 192.434052,142.963989 
	C192.742142,142.666611 193.050232,142.369232 193.647369,142.364655 
	C193.869446,143.105820 193.802460,143.554153 193.735489,144.002502 
z"/>
<path fill="#1A1A1A" opacity="1.000000" stroke="none" 
	d="
M193.768066,144.443100 
	C193.802460,143.554153 193.869446,143.105820 193.920715,142.315094 
	C194.093567,141.859299 194.282104,141.745895 194.750626,141.807236 
	C195.003845,143.192719 194.977066,144.403458 194.988495,146.071716 
	C194.617996,145.980698 194.209335,145.432205 193.768066,144.443100 
z"/>
<path fill="#030303" opacity="1.000000" stroke="none" 
	d="
M173.661469,102.915337 
	C173.693665,103.535858 173.392593,104.037163 173.091507,104.538467 
	C172.775314,104.247498 172.459122,103.956520 172.058548,103.391922 
	C172.425507,103.010902 172.876846,102.903511 173.661469,102.915337 
z"/>
<path fill="#E6E6E6" opacity="1.000000" stroke="none" 
	d="
M175.039459,97.275627 
	C175.587250,97.063477 176.174438,97.149483 176.921204,97.517197 
	C176.413483,97.723854 175.746185,97.648819 175.039459,97.275627 
z"/>
<path fill="#E6E6E6" opacity="1.000000" stroke="none" 
	d="
M183.166016,118.865082 
	C182.601440,118.539177 182.282455,118.049431 181.972153,117.239754 
	C182.434952,116.911484 182.889084,116.903130 183.672028,116.984909 
	C183.804428,117.617096 183.608017,118.159164 183.166016,118.865082 
z"/>
<path fill="#222222" opacity="1.000000" stroke="none" 
	d="
M182.150177,144.001282 
	C182.731232,143.916656 183.361282,144.159790 184.000275,144.689911 
	C183.405869,144.760941 182.802521,144.544983 182.150177,144.001282 
z"/>
<path fill="#E6E6E6" opacity="1.000000" stroke="none" 
	d="
M195.443146,125.628357 
	C195.332489,126.054337 195.062271,126.312180 194.792068,126.570023 
	C194.685516,126.457909 194.480042,126.254082 194.486679,126.246933 
	C194.740219,125.973488 195.013214,125.718056 195.443146,125.628357 
z"/>
<path fill="#E6E6E6" opacity="1.000000" stroke="none" 
	d="
M201.041748,131.427185 
	C201.270737,131.802597 201.268570,132.175781 201.239594,132.546875 
	C201.238815,132.556961 200.813889,132.551285 200.813400,132.541580 
	C200.794708,132.170120 200.802612,131.797302 201.041748,131.427185 
z"/>
<path fill="#222222" opacity="1.000000" stroke="none" 
	d="
M186.893295,140.732666 
	C186.549637,140.907990 186.084320,140.822266 185.618988,140.736526 
	C185.759247,140.488708 185.899521,140.240906 186.281631,139.972443 
	C186.606201,140.125061 186.688904,140.298340 186.893295,140.732666 
z"/>
<path fill="#EBEBEB" opacity="1.000000" stroke="none" 
	d="
M186.332443,166.843781 
	C186.014984,166.755753 186.015152,166.355988 186.014618,166.156128 
	C186.458313,165.947083 186.902527,165.937927 187.672699,166.002319 
	C187.994934,166.253372 187.991211,166.430862 187.967728,166.874985 
	C187.515274,167.071671 187.082596,167.001740 186.332443,166.843781 
z"/>
<path fill="#1A1A1A" opacity="1.000000" stroke="none" 
	d="
M182.218765,105.535736 
	C181.962616,105.191864 181.974915,104.808472 182.027924,104.139549 
	C182.208160,104.401413 182.347687,104.948807 182.218765,105.535736 
z"/>
<path fill="#A9A9A9" opacity="1.000000" stroke="none" 
	d="
M199.012543,150.187119 
	C199.020386,149.645477 199.248352,149.271912 199.759521,148.721863 
	C199.772705,149.148666 199.502686,149.751938 199.012543,150.187119 
z"/>
<path fill="#A9A9A9" opacity="1.000000" stroke="none" 
	d="
M203.717102,145.276306 
	C203.801758,144.655670 204.089584,144.305008 204.709900,143.870941 
	C204.668350,144.373795 204.294312,144.960037 203.717102,145.276306 
z"/>
<path fill="#D6D6D6" opacity="1.000000" stroke="none" 
	d="
M198.139252,145.056152 
	C197.978546,144.799194 197.976379,144.626846 198.079819,144.218506 
	C198.185425,143.982529 198.472076,143.957657 198.613083,143.933472 
	C198.601990,144.319794 198.449890,144.730286 198.139252,145.056152 
z"/>
<path fill="#C7C7C7" opacity="1.000000" stroke="none" 
	d="
M184.028320,152.413071 
	C183.475311,152.656982 182.900604,152.618500 182.325897,152.580002 
	C182.596390,152.292572 182.866882,152.005142 183.455353,151.666107 
	C183.851089,151.786560 183.928848,151.958618 184.028320,152.413071 
z"/>
<path fill="#A9A9A9" opacity="1.000000" stroke="none" 
	d="
M202.414322,148.344070 
	C202.486725,148.281158 202.521835,148.502090 202.521835,148.502090 
	C202.521835,148.502090 202.341919,148.406982 202.414322,148.344070 
z"/>
<path fill="#030303" opacity="1.000000" stroke="none" 
	d="
M177.004303,103.027283 
	C177.193130,103.105690 176.853668,103.452217 176.853668,103.452217 
	C176.853668,103.452217 176.369705,103.424980 176.196075,103.254684 
	C176.270248,102.942604 176.534592,102.897430 177.004303,103.027283 
z"/>
<path fill="#878787" opacity="1.000000" stroke="none" 
	d="
M200.267609,148.294434 
	C199.876678,148.271301 199.775726,148.031830 199.565796,147.418060 
	C199.806122,147.027405 200.155411,147.011047 201.029083,147.013214 
	C201.221512,147.380524 200.889572,147.729294 200.267609,148.294434 
z"/>
<path fill="#3F3F3F" opacity="1.000000" stroke="none" 
	d="
M183.873871,171.775879 
	C183.503006,171.943207 183.294754,171.753754 183.065521,171.290634 
	C183.302505,171.230911 183.633148,171.364944 183.873871,171.775879 
z"/>
<path fill="#D6D6D6" opacity="1.000000" stroke="none" 
	d="
M181.617889,175.885284 
	C181.752670,183.447968 181.580719,190.847321 181.190643,198.613831 
	C180.409256,198.327850 179.366653,197.682205 179.356339,197.020508 
	C179.243988,189.802536 179.269363,182.581802 179.337967,175.362610 
	C179.344284,174.698776 179.906769,174.040253 180.515121,172.718414 
	C180.925034,174.265060 181.118103,174.993515 181.617889,175.885284 
z"/>
<path fill="#F5F5F5" opacity="1.000000" stroke="none" 
	d="
M164.464844,149.731110 
	C163.774200,146.224350 163.362167,142.543854 162.861008,138.421814 
	C162.818756,137.543579 162.865601,137.106873 162.933151,135.961533 
	C163.046539,134.205795 163.139221,133.158722 163.231918,132.111633 
	C164.269104,132.674118 165.306274,133.236603 166.659729,133.844055 
	C166.982269,138.311127 166.988525,142.733231 166.986420,147.627075 
	C166.233185,148.584976 165.488327,149.071167 164.464844,149.731110 
z"/>
<path fill="#161616" opacity="1.000000" stroke="none" 
	d="
M162.919601,131.996231 
	C163.139221,133.158722 163.046539,134.205795 162.863800,135.637619 
	C161.555206,135.332092 160.336655,134.641830 159.118088,133.951569 
	C160.281158,133.261322 161.444214,132.571075 162.919601,131.996231 
z"/>
<path fill="#EBEBEB" opacity="1.000000" stroke="none" 
	d="
M165.620117,125.102310 
	C166.018387,125.805511 166.012299,126.485161 165.987305,127.504242 
	C164.977295,127.458939 163.986160,127.074196 162.995041,126.689438 
	C163.735275,126.152542 164.475525,125.615646 165.620117,125.102310 
z"/>
<path fill="#0F0F0F" opacity="1.000000" stroke="none" 
	d="
M162.568207,116.784149 
	C162.346832,117.689537 161.941696,118.363113 161.536560,119.036697 
	C161.179459,118.740395 160.822357,118.444092 160.465256,118.147789 
	C161.104980,117.615974 161.744705,117.084160 162.568207,116.784149 
z"/>
<path fill="#EBEBEB" opacity="1.000000" stroke="none" 
	d="
M176.279510,119.578125 
	C175.589508,119.960350 174.899521,120.342583 174.003998,120.352112 
	C174.030991,119.300949 174.263519,118.622482 175.005341,118.082123 
	C175.974777,118.595833 176.434921,118.971451 176.895065,119.347061 
	C176.895065,119.347061 176.649292,119.641983 176.311676,119.523392 
	C175.871857,119.446762 175.769669,119.488724 175.667465,119.530685 
	C175.765610,119.583687 175.861069,119.672050 175.962646,119.679779 
	C176.065094,119.687561 176.173630,119.615303 176.279510,119.578125 
z"/>
<path fill="#1A1A1A" opacity="1.000000" stroke="none" 
	d="
M161.254883,110.853851 
	C160.614090,111.054054 160.111557,111.025330 159.231262,110.963448 
	C159.236038,110.343575 159.618576,109.756866 160.001114,109.170158 
	C160.465118,109.655075 160.929108,110.139999 161.254883,110.853851 
z"/>
<path fill="#0F0F0F" opacity="1.000000" stroke="none" 
	d="
M177.765533,116.115677 
	C177.892776,116.821129 177.802139,117.651878 177.409836,118.451706 
	C177.066345,117.966606 177.024521,117.512428 176.982727,117.058258 
	C177.171036,116.785828 177.359344,116.513390 177.765533,116.115677 
z"/>
<path fill="#0F0F0F" opacity="1.000000" stroke="none" 
	d="
M165.024902,109.249893 
	C165.553497,109.177849 166.098999,109.362938 166.810791,109.791359 
	C166.331985,109.858803 165.686920,109.682915 165.024902,109.249893 
z"/>
<path fill="#A9A9A9" opacity="1.000000" stroke="none" 
	d="
M176.613098,117.061142 
	C177.024521,117.512428 177.066345,117.966606 177.259155,118.727722 
	C177.410156,119.034653 177.200333,119.269913 177.047699,119.308487 
	C176.434921,118.971451 175.974777,118.595833 175.278992,118.037064 
	C175.443375,117.590622 175.843430,117.327332 176.613098,117.061142 
z"/>
<path fill="#161616" opacity="1.000000" stroke="none" 
	d="
M163.537415,111.464943 
	C163.565933,111.514908 163.508911,111.414978 163.537415,111.464943 
z"/>
<path fill="#0F0F0F" opacity="1.000000" stroke="none" 
	d="
M169.538742,117.553581 
	C169.479172,117.589874 169.598312,117.517288 169.538742,117.553581 
z"/>
<path fill="#1C1C1C" opacity="1.000000" stroke="none" 
	d="
M186.988922,134.777374 
	C187.041855,135.119400 187.072128,135.525299 187.117645,135.723663 
	C183.663284,138.080521 180.373886,141.012329 175.365448,139.018524 
	C176.092331,137.959625 177.043610,136.611313 178.344284,135.931000 
	C180.493408,134.806946 182.841980,134.029160 185.170807,133.315201 
	C185.604004,133.182388 186.339828,134.036636 186.988922,134.777374 
z"/>
<path fill="#1C1C1C" opacity="1.000000" stroke="none" 
	d="
M172.013947,142.253082 
	C172.056030,141.878067 172.546066,141.857834 172.786102,141.806000 
	C173.824875,143.498001 174.623627,145.241837 175.628723,147.436188 
	C174.122726,147.137772 172.894562,146.894409 171.404282,146.599121 
	C171.610840,145.153915 171.791351,143.891022 172.013947,142.253082 
z"/>
<path fill="#1C1C1C" opacity="1.000000" stroke="none" 
	d="
M173.226746,139.859558 
	C173.123596,139.660141 173.307190,139.414963 173.772034,139.117432 
	C173.885208,139.321091 173.705276,139.570679 173.226746,139.859558 
z"/>
<path fill="#1C1C1C" opacity="1.000000" stroke="none" 
	d="
M185.011765,129.982697 
	C182.131424,131.426971 179.267990,132.948914 176.315247,134.271423 
	C176.022125,134.402710 174.709457,133.319595 174.706757,132.795807 
	C174.702393,131.947861 175.175568,130.838364 175.826828,130.291412 
	C178.512451,128.035797 181.452896,129.365997 184.680710,129.972870 
	C185.042450,129.978806 185.003555,130.004288 185.011765,129.982697 
z"/>
<path fill="#222222" opacity="1.000000" stroke="none" 
	d="
M172.996948,124.382019 
	C173.493607,124.013275 173.986099,124.026550 174.841431,124.330276 
	C175.384155,125.087891 175.564072,125.555046 175.743973,126.022202 
	C175.252029,126.920174 174.760071,127.818146 173.588181,129.957184 
	C173.289154,127.348953 173.140976,126.056488 172.996948,124.382019 
z"/>
<path fill="#DEDDD7" opacity="1.000000" stroke="none" 
	d="
M175.933487,126.320297 
	C175.564072,125.555046 175.384155,125.087891 175.209991,124.356697 
	C175.539688,124.018433 175.863617,123.944206 176.436615,123.841904 
	C176.929550,123.861778 177.173431,123.909721 177.927383,124.292694 
	C179.298370,124.762886 180.159286,124.898048 181.020187,125.033211 
	C181.020187,125.033211 181.010010,124.984344 180.957932,125.192123 
	C180.905853,125.399910 180.884903,125.804764 180.884903,125.804764 
	C179.297607,126.075974 177.710297,126.347183 175.933487,126.320297 
z"/>
<path fill="#1C1C1C" opacity="1.000000" stroke="none" 
	d="
M170.350647,135.790222 
	C169.874222,135.173599 169.603195,134.390594 169.306641,133.292053 
	C169.281113,132.976501 169.603119,132.927353 169.813675,132.973053 
	C170.024231,133.018768 170.127655,133.135590 170.127655,133.135590 
	C170.270447,133.964996 170.413254,134.794418 170.350647,135.790222 
z"/>
<path fill="#1C1C1C" opacity="1.000000" stroke="none" 
	d="
M169.975800,132.957611 
	C170.393066,132.787262 170.858749,132.678085 171.324448,132.568909 
	C171.077042,132.724121 170.829636,132.879318 170.354950,133.085052 
	C170.127655,133.135590 170.024231,133.018768 169.975800,132.957611 
z"/>
<path fill="#878787" opacity="1.000000" stroke="none" 
	d="
M181.196045,125.867310 
	C180.884903,125.804764 180.905853,125.399910 180.933990,125.199203 
	C181.466156,125.000183 181.970169,125.001869 182.837555,125.111504 
	C182.636353,125.456245 182.071762,125.693047 181.196045,125.867310 
z"/>
<path fill="#030303" opacity="1.000000" stroke="none" 
	d="
M167.997192,107.002121 
	C167.994400,107.004250 168.425705,107.236916 168.425705,107.236916 
	C168.425705,107.236916 168.122787,107.221458 168.063492,107.107719 
	C168.004196,106.993980 168.000000,107.000000 167.997192,107.002121 
z"/>
<path fill="#A9A9A9" opacity="1.000000" stroke="none" 
	d="
M176.234467,119.571823 
	C176.173630,119.615303 176.065094,119.687561 175.962646,119.679779 
	C175.861069,119.672050 175.765610,119.583687 175.667465,119.530685 
	C175.769669,119.488724 175.871857,119.446762 176.122711,119.489700 
	C176.271347,119.574600 176.189407,119.565521 176.234467,119.571823 
z"/>
<path fill="#E9E9E9" opacity="1.000000" stroke="none" 
	d="
M197.982864,148.539551 
	C197.982864,148.539551 197.619202,148.744019 197.541779,148.798584 
	C196.785080,149.471436 196.105804,150.089737 195.144806,150.908417 
	C194.863052,151.108795 194.439606,151.061584 194.228149,151.035645 
	C194.333267,150.205566 194.649841,149.401428 195.111740,148.396896 
	C195.863998,147.961868 196.470932,147.727234 197.309814,147.680969 
	C197.688812,148.092758 197.835846,148.316147 197.982864,148.539551 
z"/>
<path fill="#878787" opacity="1.000000" stroke="none" 
	d="
M198.304993,148.353683 
	C197.835846,148.316147 197.688812,148.092758 197.555191,147.468414 
	C197.896515,147.002151 198.224411,146.936813 199.046112,146.959656 
	C199.235657,147.421143 198.931396,147.794479 198.304993,148.353683 
z"/>
<path fill="#878787" opacity="1.000000" stroke="none" 
	d="
M180.866898,124.740387 
	C180.159286,124.898048 179.298370,124.762886 178.298325,124.329979 
	C179.010651,124.170685 179.862137,124.309128 180.866898,124.740387 
z"/>
</svg>